<?xml version="1.0" encoding="utf-8"?>
<!-- Generator: Adobe Illustrator 24.0.1, SVG Export Plug-In . SVG Version: 6.00 Build 0)  -->
<svg version="1.1" id="圖層_1" xmlns="http://www.w3.org/2000/svg" xmlns:xlink="http://www.w3.org/1999/xlink" x="0px" y="0px"
	 viewBox="0 0 55 49" style="enable-background:new 0 0 55 49;" xml:space="preserve">
<style type="text/css">
	.st0{enable-background:new    ;}
	.st1{fill:#FDFDFD;}
	.st2{fill:#CFCFCF;}
	.st3{fill:#FDBF00;}
	.st4{fill:#FF9F00;}
	.st5{fill:#FFDE46;}
	.st6{fill:#FFD400;}
</style>
<g class="st0">
	<path class="st1" d="M48.9,48.3H6.1c-2.9,0-5.2-2.3-5.2-5.2V5.9c0-2.9,2.3-5.2,5.2-5.2h42.8c2.9,0,5.2,2.3,5.2,5.2V43
		C54.1,45.9,51.8,48.3,48.9,48.3z"/>
	<path class="st2" d="M48.9,48.8H6.1c-3.2,0-5.7-2.6-5.7-5.7V5.9c0-3.2,2.6-5.7,5.7-5.7h42.8c3.2,0,5.7,2.6,5.7,5.7V43
		C54.6,46.2,52.1,48.8,48.9,48.8z M6.1,1.1c-2.6,0-4.7,2.1-4.7,4.7V43c0,2.6,2.1,4.7,4.7,4.7h42.8c2.6,0,4.7-2.1,4.7-4.7V5.9
		c0-2.6-2.1-4.7-4.7-4.7H6.1V1.1z"/>
</g>
<g>
	<path class="st3" d="M46.8,13.8V35c0,2.2-1.5,4-3.4,4H11.6c-1.9,0-3.4-1.8-3.4-4V13.8c0-1.1,0.4-2.1,1-2.9l0,0l17.6,11.8
		c0.2,0.2,0.5,0.2,0.7,0.2s0.5-0.1,0.7-0.2L45.8,11l0,0C46.4,11.8,46.8,12.7,46.8,13.8z"/>
	<path class="st4" d="M46.8,13.8V35c0,2.2-1.5,4-3.4,4H27.5V23.2c0.2,0,0.5-0.1,0.7-0.2l17.6-11.8l0,0
		C46.4,11.8,46.8,12.7,46.8,13.8z"/>
	<path class="st5" d="M45.8,11L45.8,11L28.2,28.2c-0.2,0.2-0.5,0.2-0.7,0.2s-0.5-0.2-0.7-0.2L9.2,11.1l0,0c0.6-0.7,1.5-1.1,2.4-1.1
		h31.8C44.3,10,45.2,10.3,45.8,11z"/>
	<path class="st6" d="M45.8,11L45.8,11L28.2,28.2c-0.2,0.2-0.5,0.2-0.7,0.2V10h15.9C44.3,10,45.2,10.3,45.8,11z"/>
</g>
</svg>
