<svg xmlns="http://www.w3.org/2000/svg" width="29" height="29" viewBox="0 0 29 29">
  <defs>
    <style>
      .cls-1 {
        fill: red;
        fill-rule: evenodd;
      }
    </style>
  </defs>
  <path id="icon_qa.svg" class="cls-1" d="M1199.09,44.718a13.49,13.49,0,0,1-5.36,5.373,14.587,14.587,0,0,1-14.44,0,13.514,13.514,0,0,1-5.37-5.373,14.519,14.519,0,0,1,.03-14.484,13.382,13.382,0,0,1,5.43-5.362,14.491,14.491,0,0,1,14.26,0,13.3,13.3,0,0,1,5.42,5.362A14.585,14.585,0,0,1,1199.09,44.718Zm-2.12-13.272a11.156,11.156,0,0,0-4.52-4.478,12.063,12.063,0,0,0-11.89,0,11.156,11.156,0,0,0-4.52,4.478,12.051,12.051,0,0,0-.04,12.07,11.484,11.484,0,0,0,4.49,4.48,12.1,12.1,0,0,0,12.04,0,11.3,11.3,0,0,0,4.47-4.48A12.083,12.083,0,0,0,1196.97,31.446Zm-12.68,10.446c0-2.357.11-3.258,1.86-4.494,0.95-.673,1.52-1.1,1.52-2.1,0-1.915-.86-2.267-1.89-2.267a2.048,2.048,0,0,0-2.17,1.842v0.025H1179c0-4.273,4.37-6.892,7.05-6.892,2.94,0,6.95,1.564,6.95,6.377a5.2,5.2,0,0,1-2.32,4.846c-1.06.761-1.5,0.9-1.5,2.669h-4.89ZM1189.26,47h-4.9V43.537h4.9V47Z" transform="translate(-1172 -23)"/>
</svg>
