<svg id="圖層_1" data-name="圖層 1" xmlns="http://www.w3.org/2000/svg" viewBox="0 0 30 30"><defs><style>.cls-1{fill:#de4f3d;}</style></defs><title>icon_u2</title><path class="cls-1" d="M28.57,8.14h0A3.93,3.93,0,0,0,25.8,5.31C23.63,4.71,15.35,4.7,15,4.7s-8.62,0-10.79.61A4,4,0,0,0,1.44,8.13,37.36,37.36,0,0,0,.85,15a37.3,37.3,0,0,0,.59,6.87A4,4,0,0,0,4.21,24.7c2.17.59,10.44.6,10.79.6s8.63,0,10.8-.6a4,4,0,0,0,2.77-2.83A38,38,0,0,0,29.15,15,37.86,37.86,0,0,0,28.57,8.14Zm-1,13.47a3,3,0,0,1-2.07,2.13c-2,.55-10.46.56-10.54.56s-8.49,0-10.53-.56A3,3,0,0,1,2.4,21.61,37.63,37.63,0,0,1,1.85,15,37.75,37.75,0,0,1,2.4,8.39,3,3,0,0,1,4.47,6.27c2-.56,10.45-.57,10.53-.57s8.5,0,10.54.57a3,3,0,0,1,2.07,2.12A38.46,38.46,0,0,1,28.15,15,38.33,38.33,0,0,1,27.61,21.61Z"/><path class="cls-1" d="M12.53,10.37a.5.5,0,0,0-.75.43v8.4a.49.49,0,0,0,.25.43.45.45,0,0,0,.25.07.43.43,0,0,0,.25-.07l7.09-4.2a.49.49,0,0,0,0-.86Zm.25,8V11.68L18.39,15Z"/></svg>