<svg id="圖層_1" data-name="圖層 1" xmlns="http://www.w3.org/2000/svg" viewBox="0 0 30 30"><defs><style>.cls-1{fill:#36abb7;}</style></defs><title>icon_fb</title><path class="cls-1" d="M22.76,1.55H7.23A5.7,5.7,0,0,0,1.54,7.23V22.77a5.7,5.7,0,0,0,5.69,5.68h7.1a.47.47,0,0,0,.35-.15.51.51,0,0,0,.15-.35l0-3.72c0-1.86,0-3.72,0-5.57a.94.94,0,0,0-.25-.7.92.92,0,0,0-.67-.2H12.37V14.69h.51c.34,0,.69,0,1,0a.91.91,0,0,0,.7-.21,1,1,0,0,0,.24-.72c0-.88,0-1.76,0-2.63a4.45,4.45,0,0,1,.85-2.67A3.65,3.65,0,0,1,18.63,7c.93,0,1.87,0,2.81,0h1v3H20.71a1.81,1.81,0,0,0-1.95,1.8c0,.41,0,.82,0,1.24s0,.58,0,.88a.73.73,0,0,0,.2.54.8.8,0,0,0,.62.19h2.84q-.16,1.57-.3,3.18H19.63A.77.77,0,0,0,19,18a.84.84,0,0,0-.2.69V28a.5.5,0,0,0,.5.5h3.47a5.69,5.69,0,0,0,5.69-5.68V7.23A5.69,5.69,0,0,0,22.76,1.55Zm4.69,21.22a4.69,4.69,0,0,1-4.69,4.68h-3V18.81h2.39a.8.8,0,0,0,.88-.77c.1-1.16.21-2.33.33-3.47a.87.87,0,0,0-.17-.7.89.89,0,0,0-.69-.24h-2.8V13c0-.4,0-.79,0-1.17,0-.6.33-.86,1-.87h2a.7.7,0,0,0,.77-.77c0-1.17,0-2.35,0-3.52a.78.78,0,0,0-.21-.57A.71.71,0,0,0,22.71,6H21.44c-1,0-1.9,0-2.86,0a4.65,4.65,0,0,0-3.69,1.88,5.55,5.55,0,0,0-1,3.25c0,.83,0,1.66,0,2.58H12.18a.74.74,0,0,0-.59.19.83.83,0,0,0-.22.61c0,1.15,0,2.31,0,3.47a.74.74,0,0,0,.83.81h1.62c0,1.82,0,3.65,0,5.47v3.22H7.23a4.69,4.69,0,0,1-4.69-4.68V7.23A4.69,4.69,0,0,1,7.23,2.55H22.76a4.69,4.69,0,0,1,4.69,4.68Z"/></svg>