<?xml version="1.0" encoding="utf-8"?>
<!-- Generator: Adobe Illustrator 24.0.1, SVG Export Plug-In . SVG Version: 6.00 Build 0)  -->
<svg version="1.1" id="圖層_1" xmlns="http://www.w3.org/2000/svg" xmlns:xlink="http://www.w3.org/1999/xlink" x="0px" y="0px"
	 viewBox="0 0 55 49" style="enable-background:new 0 0 55 49;" xml:space="preserve">
<style type="text/css">
	.st0{enable-background:new    ;}
	.st1{fill:#FDFDFD;}
	.st2{fill:#CFCFCF;}
	.st3{fill:#C0C0C0;enable-background:new    ;}
	.st4{fill:#FFD200;enable-background:new    ;}
	.st5{fill:#DBBA00;enable-background:new    ;}
	.st6{fill:#8A7200;enable-background:new    ;}
</style>
<g class="st0">
	<path class="st1" d="M48.9,48.3H6.1c-2.9,0-5.2-2.3-5.2-5.2V5.9c0-2.9,2.3-5.2,5.2-5.2h42.8c2.9,0,5.2,2.3,5.2,5.2V43
		C54.1,45.9,51.8,48.3,48.9,48.3z"/>
	<path class="st2" d="M48.9,48.8H6.1c-3.2,0-5.7-2.6-5.7-5.7V5.9c0-3.2,2.6-5.7,5.7-5.7h42.8c3.2,0,5.7,2.6,5.7,5.7V43
		C54.6,46.2,52.1,48.8,48.9,48.8z M6.1,1.1c-2.6,0-4.7,2.1-4.7,4.7V43c0,2.6,2.1,4.7,4.7,4.7h42.8c2.6,0,4.7-2.1,4.7-4.7V5.9
		c0-2.6-2.1-4.7-4.7-4.7H6.1z"/>
</g>
<path class="st3" d="M32.9,20.7v-6.4c0-2.6-2.1-4.7-4.7-4.7s-4.7,2.1-4.7,4.7v6.4h-3.6v-6.4c0-4.6,3.8-8.4,8.4-8.4s8.4,3.8,8.4,8.4
	v6.4H32.9z M32.9,20.7"/>
<path class="st3" d="M32.9,14.3v6.4h3.6v-6.4c0-4.6-3.8-8.4-8.4-8.4v3.6C30.7,9.6,32.9,11.7,32.9,14.3L32.9,14.3z M32.9,14.3"/>
<path class="st4" d="M43.2,42.4H12.9c-0.7,0-1.3-0.5-1.3-1.1V20.1c0-0.6,0.6-1.1,1.3-1.1h30.3c0.7,0,1.3,0.5,1.3,1.1v21.3
	C44.5,41.9,43.9,42.4,43.2,42.4L43.2,42.4z M43.2,42.4"/>
<path class="st5" d="M43.2,19H28v23.4h15.2c0.7,0,1.3-0.5,1.3-1.1V20.1C44.5,19.5,43.9,19,43.2,19L43.2,19z M43.2,19"/>
<path class="st6" d="M31.4,28.8c0-1.8-1.5-3.3-3.3-3.3c-1.8,0-3.3,1.5-3.3,3.3c0,1.4,0.9,2.6,2.2,3.1v3.2c0,0.6,0.5,1.1,1.1,1.1
	c0.6,0,1.1-0.5,1.1-1.1v-3.2C30.5,31.5,31.4,30.3,31.4,28.8L31.4,28.8z M31.4,28.8"/>
</svg>
