<?xml version="1.0" encoding="utf-8"?>
<!-- Generator: Adobe Illustrator 24.1.0, SVG Export Plug-In . SVG Version: 6.00 Build 0)  -->
<svg version="1.1" id="圖層_1" xmlns="http://www.w3.org/2000/svg" xmlns:xlink="http://www.w3.org/1999/xlink" x="0px" y="0px"
	 viewBox="0 0 29 29" style="enable-background:new 0 0 29 29;" xml:space="preserve">
<style type="text/css">
	.st0{fill-rule:evenodd;clip-rule:evenodd;fill:#FFFFFF;}
</style>
<path id="icon_qa.svg" class="st0" d="M27.1,21.7c-1.2,2.3-3.1,4.1-5.4,5.4c-4.5,2.5-10,2.5-14.4,0C5,25.9,3.2,24,1.9,21.7
	c-2.6-4.5-2.6-10,0-14.5C3.2,5,5.1,3.1,7.4,1.9c4.4-2.5,9.8-2.5,14.3,0c2.3,1.2,4.2,3.1,5.4,5.4C29.6,11.7,29.6,17.2,27.1,21.7z
	 M25,8.4c-1-1.9-2.6-3.5-4.5-4.5c-3.7-2.1-8.2-2.1-11.9,0C6.7,5,5.1,6.5,4,8.4c-2.2,3.7-2.2,8.3,0,12.1C5,22.4,6.6,24,8.5,25
	c3.7,2.1,8.3,2.1,12,0c1.9-1,3.4-2.6,4.5-4.5C27.1,16.8,27.1,12.2,25,8.4z M12.3,18.9c0-2.4,0.1-3.3,1.9-4.5
	c0.9-0.7,1.5-1.1,1.5-2.1c0-1.9-0.9-2.3-1.9-2.3c-1.1-0.1-2.1,0.7-2.2,1.8v0H7C7,7.6,11.4,5,14.1,5C17,5,21,6.6,21,11.4
	c0.2,1.9-0.7,3.8-2.3,4.8c-1.1,0.8-1.5,0.9-1.5,2.7L12.3,18.9L12.3,18.9z M17.3,24h-4.9v-3.5h4.9V24z"/>
</svg>
