<svg id="圖層_1" data-name="圖層 1" xmlns="http://www.w3.org/2000/svg" viewBox="0 0 30 30"><defs><style>.cls-1{fill:#adce3e;}</style></defs><title>icon_line</title><path class="cls-1" d="M15,1.2C7,1.2.5,6.51.5,13c0,5.83,5.11,10.74,12.11,11.67.59.12.85.31.88.38a2.31,2.31,0,0,1,0,1l-.21,1.22a1.3,1.3,0,0,0,.31,1.3,1,1,0,0,0,.63.2,2.61,2.61,0,0,0,1-.24c1.62-.67,8.21-4.82,11.17-8.23A10.56,10.56,0,0,0,29.5,13C29.5,6.51,23,1.2,15,1.2ZM25.63,19.66h0c-2.81,3.24-9.29,7.34-10.8,8-.37.15-.54.16-.57.19a1.8,1.8,0,0,1,0-.4l.21-1.2a3.11,3.11,0,0,0-.08-1.52,2.13,2.13,0,0,0-1.63-1C6.24,22.85,1.5,18.35,1.5,13,1.5,7.06,7.56,2.2,15,2.2S28.5,7.06,28.5,13A9.51,9.51,0,0,1,25.63,19.66Z"/><path class="cls-1" d="M9.52,15.28h-2V10.47a.74.74,0,0,0-1.47,0V16a.74.74,0,0,0,.73.74H9.52a.74.74,0,1,0,0-1.47Z"/><path class="cls-1" d="M11.67,9.74a.73.73,0,0,0-.74.73V16a.74.74,0,1,0,1.47,0V10.47A.73.73,0,0,0,11.67,9.74Z"/><path class="cls-1" d="M23.6,11.2a.73.73,0,1,0,0-1.46H20.82a.73.73,0,0,0-.74.73V16a.74.74,0,0,0,.74.74H23.6a.74.74,0,0,0,0-1.47H21.55V14H23.6a.73.73,0,1,0,0-1.46H21.55V11.2Z"/><path class="cls-1" d="M18.36,9.74a.73.73,0,0,0-.73.73V13.9L14.78,10a.75.75,0,0,0-.59-.29.91.91,0,0,0-.23,0,.73.73,0,0,0-.5.7V16a.74.74,0,1,0,1.47,0V12.58l2.85,3.87a.72.72,0,0,0,.58.3,1,1,0,0,0,.24,0,.73.73,0,0,0,.5-.7V10.47A.73.73,0,0,0,18.36,9.74Z"/></svg>