<?xml version="1.0" encoding="utf-8"?>
<!-- Generator: Adobe Illustrator 24.1.0, SVG Export Plug-In . SVG Version: 6.00 Build 0)  -->
<svg version="1.1" id="圖層_3" xmlns="http://www.w3.org/2000/svg" xmlns:xlink="http://www.w3.org/1999/xlink" x="0px" y="0px"
	 viewBox="0 0 145.2 68.4" style="enable-background:new 0 0 145.2 68.4;" xml:space="preserve">
<style type="text/css">
	.st0{fill:#0A6FB4;}
	.st1{fill:#F4D924;}
	.st2{fill:#FFFFFF;}
	.st3{fill:#178DC0;}
	.st4{fill:#004086;}
	.st5{fill:#CA142A;}
	.st6{fill:#744720;}
</style>
<g>
	<polygon class="st0" points="0,26.8 13.3,26.8 13.3,31.1 9.1,31.1 8.7,36.9 15.4,36.9 15.4,41.6 0,41.6 0,37.3 3.2,37.3 3.9,31 
		0,31 	"/>
	<path class="st0" d="M33.4,38c0-3.4-2.8-6.2-6.2-6.2c-1.3,0-2.5,0.4-3.4,1h-0.2l0.4-3.9h7.3v-4.6h-17v4.4h4.2l-1,9.3h3.6H23
		l2.3-1.5l1.6,2l-4.5,3.3L19,44.2l2.9,3.2l8.4-3.9v-0.1C32.1,42.4,33.4,40.4,33.4,38"/>
	<path class="st0" d="M40.6,23.4c1.6,0,2.9,1.3,2.9,2.9s-1.3,2.9-2.9,2.9s-2.9-1.3-2.9-2.9C37.7,24.7,39,23.4,40.6,23.4"/>
	<path class="st0" d="M52.3,31.9h-3.9V31h3.9V31.9z M52.3,34.9h-3.9v-0.8h3.9V34.9z M56.9,34.1h3.9v0.8h-3.9V34.1z M56.9,31h3.9v0.9
		h-3.9V31z M65.1,37.9h-8.3v-0.7H61v-0.1c2.1-0.2,3.8-2,3.8-4.2s-1.7-4-3.8-4.2l0,0h-4.2v-0.9h6.3v-3.5h-6.3v-0.8h-4.5v0.8h-6.4v3.5
		h6.4v0.9h-4c-2.3,0-4.2,1.9-4.2,4.2s1.9,4.2,4.2,4.2l0,0h4v0.7h-8.5v3.7h8.6v1.1h4.5v-1.1h8.2V37.9L65.1,37.9z"/>
	<path class="st0" d="M65.4,42.2c0,0-2,1.4-6.3,1.4h-13v-0.1c-1.9,0-3.3-1.5-3.3-3.4v-7.5c0-1.4-1.1-2.5-2.5-2.5
		c-0.5,0-0.9,0.1-1.3,0.3l0,0l-4.9,2.8l2.3,3.4l2.1-1.3v5.1c-2.4,0.7-4.2,2.9-4.2,5.6c0,0.3,0,0.6,0.1,0.8h3.8
		c0-1.4,0.9-2.5,2.1-2.9c1.1,2,3.2,3.4,5.6,3.4H57c6.3,0.3,9.3-4,9.3-4L65.4,42.2z"/>
	<path class="st0" d="M91.5,31.8c-1.2,0-2.2-1-2.2-2.2s1-2.2,2.2-2.2s2.2,1,2.2,2.2S92.7,31.8,91.5,31.8 M91.5,23.8
		c-3.2,0-5.8,2.6-5.8,5.8s2.6,5.8,5.8,5.8c3.2,0,5.8-2.6,5.8-5.8C97.4,26.4,94.8,23.8,91.5,23.8"/>
	<path class="st0" d="M75.6,28.7H73l0.7-0.9h1.9V28.7z M83.3,32.9l-0.5-0.8H85v-3.4h-4.1v-0.8h3.9v-3.5H73.5l-1-1.2l-5.9,6.2
		l2.4,1.2V32h5.2l-0.5,0.7h-4.8c0.9,1.6,2.6,2.7,4.6,2.7c2.3,0,4.2-1.5,4.9-3.5c0.2,1.8,1.8,3.2,3.6,3.2c1.5,0,2.8-0.9,3.4-2.3
		L83.3,32.9C83.3,32.8,83.3,32.9,83.3,32.9z"/>
	<path class="st0" d="M73.1,40.1c0.4-0.5,1-0.9,1.7-0.9h16.3c0.7,0,1.3,0.4,1.7,0.9H73.1z M91.1,43.1H74.8c-0.7,0-1.3-0.3-1.6-0.8
		h19.5C92.3,42.8,91.7,43.1,91.1,43.1 M91.4,35.9L91.4,35.9H74.7l0,0c-2.9,0.1-5.1,2.4-5.1,5.2c0,2.9,2.4,5.3,5.3,5.3
		c0.2,0,0.4,0,0.6,0h15c0.2,0,0.4,0,0.6,0c2.9,0,5.3-2.3,5.3-5.3C96.3,38.4,94.1,36.1,91.4,35.9"/>
	<path class="st1" d="M114.9,52.4c-0.1,1.3-0.1,2.8-0.2,4c0.9,0,2.4,0.7,3.2,1.6c1.1-0.5,2.7-0.3,2.8-0.1c0.1-0.9,0.1-3.5,0.1-5.5
		C120,52.8,116.2,52.7,114.9,52.4"/>
	<path class="st1" d="M121.8,52.4c0,1.9,0.1,4.6,0.1,5.4c0-0.2,1.5-0.4,2.6,0.1c0.8-0.9,2.5-1.6,3.4-1.6c-0.1-1.2-0.1-2.7-0.2-4
		C126.5,52.7,122.7,52.8,121.8,52.4"/>
	<path class="st1" d="M110.7,33.6c-0.3-0.2-0.6-0.2-0.8,0c-0.2,0.1-0.4,0.3-0.5,0.6s-0.1,0.5,0,0.8c0.1,0.2,0.2,0.4,0.3,0.5
		c0.6,0.4,1.1,1,1.4,1.8c0.3-0.8,0.6-1.6,1-2.5C111.6,34.3,111.2,33.9,110.7,33.6"/>
	<path class="st1" d="M113.8,44.5c0-0.1,0-0.3,0-0.7c-0.1,0.3-0.3,0.6-0.3,0.7l0.1,0.1c0.3,0.2,0.6,0.4,0.9,0.6c0-0.2,0-0.4,0-0.6
		C114,44.6,113.8,44.5,113.8,44.5"/>
	<path class="st2" d="M113.6,61.9c-1.4-2.3-2.6-1.9-2.8-1.1c0,0.3,0,0.7,0,0.9c0.2,0.8,3.5,1.8,6.8,0.6c0.9-0.3,3-0.7,3.1-1.4
		c0-0.2,0.1-0.5,0.1-0.8c-0.6,0.5-2.4,0.9-3.2,1.2C116.3,61.8,114.7,61.9,113.6,61.9"/>
	<path class="st2" d="M129.1,61.8c-1.1,0.1-2.8,0-4.1-0.5c-0.8-0.3-2.6-0.7-3.2-1.2c0,0.3,0,0.5,0.1,0.8c0.1,0.7,2.2,1.1,3.1,1.4
		c3.2,1.2,6.6,0.3,6.8-0.6c0.1-0.3,0.1-0.6,0-0.9l-0.1-0.1C131.3,60.1,130,60.2,129.1,61.8"/>
	<path class="st3" d="M118,58c-0.8-0.9-2.4-1.6-3.2-1.6c-0.3,0-0.5,0.1-0.6,0.2c-0.3,0.4-0.4,0.6-0.6,0.9c-0.1,0-0.2,0-0.3,0
		c-0.3,0.1-1,0.9-1,1.1c-1.3,0.9-1.3,1.4-1.4,2.2c0.2-0.8,1.4-1.2,2.8,1.1c1.1,0.1,2.7-0.1,4-0.5c0.8-0.3,2.6-0.7,3.2-1.2
		c0.1-0.8,0-1.8-0.1-2.3C120.7,57.6,119,57.5,118,58"/>
	<path class="st3" d="M124.5,58c-1.1-0.5-2.5-0.3-2.6-0.1c-0.1,0.5-0.1,1.4-0.1,2.3c0.6,0.5,2.4,0.9,3.2,1.2c1.3,0.5,3,0.6,4.1,0.5
		c0.8-1.7,2.2-1.8,2.6-1.2l0.1,0.1c-0.1-0.8-0.1-1.3-1.4-2.2c0-0.2-0.7-1.1-1-1.1c-0.1,0-0.2,0-0.3,0c-0.2-0.2-0.3-0.5-0.6-0.9
		c-0.1-0.1-0.3-0.2-0.6-0.2C127,56.4,125.3,57.1,124.5,58"/>
	<path class="st4" d="M121.3,44.9c-2.8,0-5.7-0.1-6.9-0.2c0,0.2,0,0.4,0,0.6c0,2.9,0,6.6,0,6.9c0,0.1,0.2,0.2,0.4,0.2
		c1.3,0.3,5.1,0.5,6,0c0.1-0.1,0.2-0.1,0.2-0.2c0-0.3,0.1-4,0.2-4.8c0.1,0,0.1-0.1,0.2-0.1c0.1,0.3,0.2,4.7,0.2,4.9
		c0,0.1,0.1,0.1,0.2,0.2c0.9,0.4,4.7,0.3,6,0c0.3-0.1,0.4-0.1,0.4-0.2c0.1-0.4,0.1-4.7,0-7.6C127,44.7,124.2,44.8,121.3,44.9"/>
	<path class="st1" d="M109.8,43.5c-1,1.7-0.9,4.2,0.5,5.2c0.5,0.4,1,0.4,1.2,0.3c0.2,0,0.3,0,0.6,0c0.4,0,0.6-0.3,0.5-0.7
		c0.1,0,0.2-0.1,0.2-0.2c0.1-0.2,0.2-0.3,0.1-0.4c0,0,0,0,0.1-0.1c0.3-0.4,0.2-0.6-0.4-1.1c0.1-0.3,0.1-0.7,0.2-1.1
		c0.1-0.4,0.1-0.7,0.1-1C112.1,44.5,110.5,44.1,109.8,43.5"/>
	<path class="st1" d="M129.6,44.5c0,0.2,0,0.5,0.1,0.9s0.1,0.8,0.2,1.1c-0.6,0.5-0.8,0.7-0.5,1.1c0,0,0,0,0.1,0.1
		c0,0.1,0,0.3,0.1,0.4c0.1,0.1,0.1,0.1,0.2,0.2c-0.1,0.4,0.1,0.6,0.5,0.7c0.3,0,0.4,0,0.6,0c0.2,0.2,0.7,0.1,1.2-0.2
		c1.4-0.9,1.7-3.4,0.8-5.1C132.1,44.1,130.3,44.5,129.6,44.5"/>
	<path class="st5" d="M132.9,43.6c0.3-0.2,0.5-0.4,0.4-0.6c-1.2-4.2-2.9-10.8-6.8-14.4c-2.2,1.9-8,2-10.2-0.1
		c-1.8,1.4-3.2,3.8-4.2,6.2c-0.4,0.8-0.7,1.7-1,2.5c-0.9,2.6-1.5,4.9-1.7,5.5c-0.1,0.3,0.1,0.6,0.4,0.8c0.8,0.6,2.4,0.9,3.2,1.1
		c0.2,0,0.3,0,0.4,0c0,0,0.1,0,0.1-0.1c0.1-0.1,0.2-0.4,0.3-0.7c0,0.4,0,0.6,0,0.7c0,0,0.2,0.1,0.6,0.1c1.2,0.1,4.1,0.3,6.9,0.2
		c2.9,0,5.7-0.2,6.9-0.3c0.4-0.1,0.6-0.1,0.6-0.2c0-0.1,0-0.5-0.1-1c0.2,0.6,0.4,1.1,0.5,1.1c0,0,0.1,0,0.3,0
		C130.3,44.5,132.1,44.1,132.9,43.6 M124.8,35.6c-1,0-1.7-0.7-1.6-2.9h3.1C126.6,35.2,125.8,35.6,124.8,35.6"/>
	<path class="st5" d="M126.4,28.6c-0.2-0.2-0.5-0.4-0.8-0.6c-1.9,1.5-6.7,1.7-8.6,0c-0.3,0.2-0.5,0.3-0.8,0.5
		C118.4,30.6,124.3,30.5,126.4,28.6"/>
	<path class="st1" d="M125.7,28c-0.1-0.1-0.3-0.2-0.4-0.3c-0.1-0.1-0.2-0.1-0.3-0.2c-1.2,0.4-2.5,0.5-3.7,0.5s-2.4-0.2-3.5-0.5
		c-0.1,0.1-0.3,0.1-0.4,0.2s-0.2,0.1-0.4,0.2C118.9,29.6,123.7,29.5,125.7,28"/>
	<path class="st5" d="M123.1,32.7c-0.1,2.2,0.6,2.9,1.6,2.9s1.9-0.4,1.5-2.9H123.1z"/>
	<path class="st2" d="M114.4,8.9c-0.6-1-1.6-0.7-2.2-0.2s-0.8,1.8,0.2,2.3C112.9,10.2,113.6,9.5,114.4,8.9"/>
	<path class="st2" d="M130.3,11.1c0.9-0.5,0.8-1.8,0.2-2.3s-1.7-0.8-2.2,0.1C129,9.5,129.7,10.3,130.3,11.1"/>
	<path class="st1" d="M116.6,20.6c1.6-0.8,3.3-1.5,4.6-1.5s3.3,0.8,4.8,1.7c1.8,1,3.3,2.2,3.5,4c1.4-1.6,2.4-3.6,2.5-6.3
		c0.1-2.1-0.2-3.9-0.8-5.5c2.5-1,2.1-4.3,0.6-5.7c-1.6-1.4-4.2-1.8-5.5,0.5c-1.6-0.8-3.4-1.2-5.1-1.2c-1.8,0-3.6,0.4-5.1,1.2
		c-1.2-2.3-3.9-1.9-5.5-0.6c-1.5,1.4-1.9,4.7,0.6,5.7c-0.6,1.6-1,3.4-0.8,5.5c0.2,2.6,1.1,4.7,2.5,6.3
		C113.1,22.7,114.7,21.5,116.6,20.6 M130.5,8.8c0.6,0.5,0.8,1.8-0.2,2.3c-0.6-0.9-1.3-1.6-2.1-2.2C128.8,8,129.8,8.3,130.5,8.8
		 M126.2,15.5c0.6,0.1,0.7,2,0,2C125.4,17.4,125.5,15.4,126.2,15.5 M115.7,17.5c-0.7,0-0.6-1.9,0-2S116.4,17.4,115.7,17.5
		 M112.1,8.7c0.6-0.5,1.7-0.8,2.2,0.2c-0.8,0.6-1.5,1.3-2.1,2.2C111.3,10.6,111.5,9.2,112.1,8.7"/>
	<path class="st2" d="M121.3,28.1c1.3,0,2.6-0.2,3.7-0.5c1.8-0.5,3.4-1.5,4.6-2.8c-0.2-1.8-1.7-3-3.5-4c-1.6-0.9-3.5-1.7-4.8-1.7
		s-3,0.7-4.6,1.5c-1.9,0.9-3.5,2.2-3.7,4.2c1.3,1.4,3,2.4,4.9,2.9C118.9,27.9,120.1,28.1,121.3,28.1 M122.2,19.4
		c0,0.2-0.3,0.8-0.9,0.8c-0.5,0-1-0.5-0.9-0.8C120.4,19.2,122.2,19.1,122.2,19.4"/>
	<path class="st6" d="M121.3,20.2c0.7,0,1-0.6,0.9-0.8c0-0.2-1.9-0.2-1.9,0.1C120.3,19.7,120.8,20.2,121.3,20.2"/>
	<path class="st2" d="M115.6,15.5c-0.6,0.1-0.7,2,0,2C116.4,17.4,116.3,15.4,115.6,15.5"/>
	<path class="st2" d="M126.1,17.5c0.7,0,0.6-1.9,0-2S125.4,17.4,126.1,17.5"/>
	<path d="M133.3,44c0-0.1-0.1-0.2-0.1-0.3c0.1-0.1,0.2-0.1,0.2-0.2c0.2-0.2,0.1-0.4,0.1-0.5c-0.1-0.3-0.2-0.7-0.3-1
		c-1.2-4.3-2.9-10.1-6.6-13.4c-0.3-0.2-0.5-0.5-0.8-0.7c-0.1-0.1-0.2-0.1-0.3-0.2c1.2-0.4,2.3-1,3.3-1.8s1.8-1.8,2.4-2.9
		c0.1,0.1,0.3,0.1,0.4,0.2l0.2,0.1l0.2,0.1c0,0,0.2,0.1,0.4,0.2s0.2,0.1,0.3,0c0,0,0-0.1-0.2-0.2s-0.4-0.2-0.4-0.2l-0.2-0.1
		l-0.2-0.1c-0.1-0.1-0.3-0.1-0.4-0.2c0.2-0.4,0.3-0.7,0.5-1.1h0.1h0.2h0.2c0,0,0.3,0,0.4,0c0.2,0,0.2,0,0.3-0.1c0,0,0-0.1-0.2-0.1
		s-0.4,0-0.4,0h-0.2H132l0,0c0.3-0.9,0.5-1.9,0.5-2.9c0.1-2-0.1-3.8-0.8-5.4c0.7-0.4,1.3-0.9,1.6-1.7c0.5-1.4,0-3.2-1.1-4.2
		c-0.8-0.7-1.9-1.2-2.9-1.2c-1.2,0-2.1,0.6-2.7,1.6c-1.5-0.7-3.3-1.1-5-1.1l0,0c-1.8,0-3.5,0.4-5,1.1c-0.6-1-1.6-1.6-2.8-1.6
		c-1,0-2.1,0.4-2.9,1.2c-1.1,1-1.6,2.8-1.1,4.2c0.3,0.8,0.8,1.4,1.6,1.7c-0.6,1.6-0.9,3.4-0.8,5.4c0.1,1,0.2,2,0.5,2.9
		c0,0,0,0-0.1,0h-0.2h-0.2c0,0-0.3,0-0.4,0.1c-0.2,0-0.2,0.1-0.2,0.1s0.1,0.1,0.3,0c0.2,0,0.4,0,0.4,0h0.2h0.2h0.1
		c0.1,0.4,0.3,0.8,0.5,1.1c-0.1,0.1-0.3,0.1-0.4,0.2l-0.2,0.1l-0.2,0.1c0,0-0.2,0.1-0.4,0.2c-0.2,0.1-0.2,0.2-0.2,0.2s0.1,0,0.3,0
		c0.2-0.1,0.4-0.2,0.4-0.2l0.2-0.1l0.2-0.1c0.1-0.1,0.3-0.1,0.4-0.2c0.6,1.1,1.4,2.1,2.4,3c1,0.8,2.1,1.4,3.4,1.8
		c-0.1,0.1-0.2,0.1-0.3,0.2c-0.3,0.2-0.5,0.3-0.8,0.5c-1.8,1.4-3.1,3.7-4.2,6c-0.4-0.4-0.8-0.7-1.2-0.9c-0.3-0.2-0.7-0.2-1,0
		c-0.3,0.1-0.5,0.4-0.6,0.7s-0.1,0.6,0,0.9s0.2,0.5,0.4,0.6c0.6,0.3,1,0.9,1.3,1.6c-0.5,1.5-0.9,2.9-1.2,4c-0.2,0.7-0.3,1.2-0.4,1.4
		s-0.1,0.5,0.1,0.7c0.1,0.1,0.2,0.2,0.3,0.3l0,0c-0.1,0.1-0.1,0.3-0.2,0.4c-0.1,0.2-0.1,0.4-0.2,0.4c-0.2,0.8-0.3,1.6-0.2,2.4
		c0.1,0.4,0.2,0.8,0.4,1.2c0.2,0.4,0.5,0.7,0.8,0.9c0.2,0.1,0.3,0.2,0.5,0.3s0.4,0.1,0.7,0.1c0.1,0,0.1,0,0.2,0s0.2,0,0.4,0
		c0.1,0,0.1,0,0.2,0c0.4,0,0.6-0.2,0.7-0.4c0-0.1,0.1-0.2,0.1-0.4c0.1,0,0.1-0.1,0.2-0.2c0.1-0.2,0.2-0.3,0.2-0.5l0,0
		c0.4-0.5,0.2-0.8-0.4-1.3c0-0.1,0-0.2,0.1-0.3c0.1-0.4,0.1-0.7,0.2-1.1c0,0,0-0.1,0-0.3c0.1,0,0.1,0,0.1,0s0,0,0.1,0h0.1
		c0.2,0.2,0.5,0.4,0.8,0.6c0,2.9,0,6.5,0,6.8c0,0.1,0,0.2,0.4,0.3c0,0.1,0,0.1,0,0.2c0,1.1-0.1,2.4-0.1,3.5c-0.2,0-0.4,0.1-0.5,0.2
		l0,0l-0.2,0.2c-0.1,0.2-0.3,0.4-0.4,0.5c-0.1,0-0.2,0-0.3,0c-0.3,0.1-1,0.8-1.1,1.2c-1.3,0.9-1.4,1.5-1.4,2.2v0.1c0,0.4,0,0.7,0,1
		c0.2,0.7,1.8,1.3,3.8,1.3c1.1,0,2.3-0.2,3.3-0.6c0.2-0.1,0.5-0.2,0.8-0.2c1.1-0.3,2.3-0.7,2.4-1.3c0-0.2,0.1-0.5,0.1-0.8
		c0.1-0.8,0.1-1.8-0.1-2.3c0.1-0.8,0.1-2.8,0.1-4.7c0-0.2,0-0.5,0-0.7c0.1-0.1,0.2-0.2,0.2-0.3c0-0.3,0-2.1,0.1-3.4
		c0.1,1.3,0.1,3.1,0.1,3.4c0,0.1,0.1,0.2,0.2,0.3c0,0.2,0,0.4,0,0.6c0,1.8,0.1,3.9,0.1,4.7c-0.1,0.5-0.1,1.5-0.1,2.3
		c0,0.3,0,0.6,0.1,0.8c0.1,0.7,1.3,1,2.4,1.3c0.3,0.1,0.6,0.2,0.8,0.2c1,0.4,2.2,0.6,3.3,0.6c2,0,3.6-0.6,3.8-1.3
		c0.1-0.3,0.1-0.6,0-1v-0.1c-0.1-0.7-0.1-1.3-1.4-2.2c-0.2-0.4-0.8-1.1-1.1-1.2c-0.1,0-0.2,0-0.3,0c-0.1-0.1-0.2-0.3-0.4-0.5
		l-0.2-0.2l0,0c-0.1-0.1-0.3-0.2-0.5-0.2c0-1-0.1-2.3-0.2-3.5c0-0.1,0-0.1,0-0.2c0.4-0.1,0.4-0.3,0.4-0.3c0.1-0.4,0.1-4.5,0-7.5
		c0.1,0,0.2,0,0.3-0.1h0.1c0,0,0,0,0.1,0c0,0,0,0,0.1-0.1l0,0c0.1,0.1,0.1,0.2,0.1,0.2c0.1,0,0.1,0.1,0.2,0.1c0,0.2,0,0.3,0,0.3
		c0,0.4,0.1,0.8,0.1,1.2c0,0.1,0,0.2,0,0.3c-0.6,0.5-0.8,0.8-0.4,1.3l0,0c0,0.1,0,0.3,0.2,0.5c0,0.1,0.1,0.1,0.2,0.2
		c0,0.1,0,0.3,0,0.4c0.1,0.2,0.2,0.4,0.7,0.4c0.1,0,0.2,0,0.3,0s0.2,0,0.3,0c0,0,0.1,0,0.1,0.1c0.3,0.1,0.5,0,0.7-0.1
		s0.4-0.2,0.6-0.3c0.4-0.2,0.6-0.5,0.8-0.9s0.4-0.7,0.4-1.1c0.2-0.8,0.1-1.6-0.1-2.4C133.4,44.5,133.4,44.3,133.3,44 M132,48.5
		c-0.1,0.1-0.3,0.2-0.5,0.2c-0.2,0.1-0.3,0.1-0.4,0c-0.1,0-0.2-0.1-0.2-0.2c0-0.1,0-0.2,0-0.3c0.1,0,0.1,0,0.2-0.1s0.2-0.2,0.3-0.3
		c0.1-0.2,0.2-0.4,0.2-0.6l0.1-0.1c0.1-0.1,0.1-0.2,0.2-0.3s0.1-0.2,0.2-0.4c0-0.2,0-0.3-0.1-0.4c-0.1-0.1-0.1-0.1-0.1-0.1
		c-0.1-0.1-0.1-0.1-0.2,0c0,0,0,0.1,0,0.2c0,0,0,0.1,0.1,0.2c0,0.1,0,0.1,0,0.2c0,0.1-0.1,0.1-0.1,0.2c0-0.1,0-0.2,0-0.3
		s-0.1-0.7-0.2-1.1c-0.1-0.5-0.2-0.6-0.3-0.5c-0.1,0-0.1,0.2,0,0.6c0.1,0.4,0.1,1,0.1,1c0,0.1,0,0.3,0,0.4c0,0.2,0,0.4,0,0.4
		c0,0.2-0.1,0.3-0.1,0.5c0,0.1-0.1,0.1-0.1,0.1s-0.1,0-0.2,0s-0.2-0.1-0.3-0.2c-0.1-0.1-0.1-0.3-0.2-0.5c-0.1-0.4-0.1-0.7-0.2-1.1
		c0-0.4-0.1-0.8-0.1-1.1c0,0,0-0.1,0-0.3c0.7-0.1,2.1-0.3,3-0.8c0,0.1,0.1,0.2,0.1,0.3c0.1,0.2,0.1,0.4,0.1,0.4
		c0.2,0.7,0.2,1.5,0.1,2.2C132.9,47.5,132.6,48.2,132,48.5 M129.9,48.6c0-0.1,0-0.3,0.1-0.6c0,0.1,0.1,0.1,0.2,0.2
		c0,0,0.1,0.1,0.2,0.1c0,0.1,0,0.3,0,0.5c0,0,0,0,0,0.1c-0.1,0-0.1,0-0.2,0C130.1,48.7,130,48.7,129.9,48.6 M129.4,44.3
		c-0.1-0.1-0.2-0.5-0.4-1c-0.1-0.6-0.1-1.1-0.2-1.6c-0.1-0.8-0.2-1.5-0.3-2.3s-0.2-1.5-0.3-2.2s-0.2-1.5-0.4-2.2
		c-0.1-0.7-0.3-1.5-0.4-2.2l-0.1-0.4l-0.1-0.4c0-0.1-0.1-0.6-0.3-1s-0.3-0.5-0.4-0.5s-0.1,0.2,0,0.6c0,0.2,0.1,0.3,0.1,0.5
		c-0.3-0.3-0.6-0.7-0.9-1c-0.2-0.3-0.5-0.5-0.7-0.8c0.5-0.2,0.9-0.5,1.3-0.7c3.5,3.3,5.1,9,6.3,13.1c0.1,0.4,0.2,0.7,0.3,1
		c0,0,0,0.1,0,0.2C132.6,43.8,130.2,44.3,129.4,44.3C129.5,44.3,129.4,44.3,129.4,44.3 M128,52.1c-0.4,0.3-3.2,0.5-5.1,0.4
		c-0.8-0.1-1-0.2-1.1-0.2c0-0.3-0.1-4-0.2-4.8c0.2-0.2,0.4-0.5,0.5-1c0.1-0.4,0.1-0.9,0.1-1.3c0.1,0,0.2,0,0.3,0
		c0.8,0,1.5,0,2.3-0.1c0.5,0,0.9,0,1.4-0.1c0.6,0.6,1.4,0.8,1.9,0.9C128.1,48.5,128.1,51.6,128,52.1 M127.6,52.7
		c0,0.4,0,0.8,0.1,1.3c-0.1,0-0.2,0-0.3,0c-0.9,0.1-1.8,0.3-2.4,0.4c-0.6,0.1-1,0.2-1.1,0.4c0,0.1,0.4,0.4,1,0.5
		c0.7,0.2,1.6,0.2,2.6,0.1c0.1,0,0.1,0,0.2,0c0,0.3,0,0.5,0,0.8c-1,0.1-2.4,0.7-3.3,1.5c-0.6-0.2-1.3-0.3-1.6-0.3s-0.5,0-0.8,0.1
		c0-0.9-0.1-2.8-0.1-4.4c0-0.2,0-0.3,0-0.5c0.2,0.1,0.5,0.1,0.8,0.1c0.4,0,0.9,0.1,1.4,0.1c0.6,0,1.3,0,2-0.1
		C126.8,52.8,127.3,52.7,127.6,52.7L127.6,52.7 M128.5,56.9c0.1,0.1,0.2,0.2,0.2,0.4c-0.8,0.2-2,0.7-2.3,1.2s-0.2,0.9-0.1,1.1
		c0.2,0.3,0.5,0.5,1,0.5c0.3,0,0.5-0.1,0.7-0.2c0.5-0.4,1.9-1,2.4-1c0.9,0.6,1.1,1,1.2,1.4c-0.2-0.1-0.3-0.1-0.5-0.1
		c-0.8,0-1.5,0.6-2,1.5c-0.2,0-0.3,0-0.5,0c-1.2,0-2.5-0.2-3.4-0.5c-0.2-0.1-0.5-0.2-0.8-0.3c-0.7-0.2-1.8-0.5-2.2-0.8
		c-0.1-0.8,0-1.7,0-2.1c0.1,0,0.3-0.1,0.8-0.1c0.6,0,1.1,0.1,1.6,0.3c0.1,0,0.2,0,0.2,0c0.8-0.9,2.4-1.5,3.3-1.5
		C128.3,56.7,128.5,56.7,128.5,56.9L128.5,56.9z M128.3,62.6c-1.1,0-2.2-0.2-3.1-0.5c-0.2-0.1-0.5-0.2-0.8-0.3
		c-0.8-0.2-2.1-0.6-2.1-1c0-0.1,0-0.2,0-0.3c0.5,0.3,1.4,0.5,2,0.7c0.3,0.1,0.6,0.2,0.8,0.3c1,0.3,2.3,0.6,3.5,0.6
		c0.2,0,0.4,0,0.6,0c0.1,0,0.1,0,0.2-0.1c0.5-1,1.2-1.4,1.7-1.4c0.2,0,0.4,0.1,0.5,0.2v0.1c0,0.3,0,0.6,0,0.8
		C131.5,62.1,130.2,62.6,128.3,62.6 M130.1,58.4c-0.7,0.2-1.9,0.7-2.4,1.1c-0.1,0.1-0.3,0.1-0.4,0.1c-0.3,0-0.5-0.1-0.6-0.3
		s0-0.5,0.1-0.6c0.3-0.5,1.7-1.1,2.4-1.1c0.1,0,0.1,0,0.2,0C129.6,57.7,129.9,58.1,130.1,58.4 M118.4,61.8c-0.3,0.1-0.6,0.2-0.9,0.3
		c-1,0.4-2.1,0.5-3.1,0.5c-1.9,0-3.3-0.6-3.4-1c-0.1-0.2-0.1-0.6,0-0.9c0.1-0.2,0.2-0.5,0.6-0.5c0.3,0,0.9,0.2,1.8,1.6
		c0,0.1,0.1,0.1,0.2,0.1c0.2,0,0.4,0,0.6,0c1.2,0,2.6-0.2,3.5-0.6c0.2-0.1,0.5-0.2,0.8-0.3c0.7-0.2,1.5-0.4,2-0.7c0,0.1,0,0.2,0,0.3
		C120.4,61.3,119.2,61.6,118.4,61.8 M113.4,57.6c0.7,0,2.1,0.6,2.4,1.1c0.1,0.2,0.2,0.4,0.1,0.6c-0.1,0.2-0.3,0.3-0.6,0.3
		c-0.2,0-0.3,0-0.4-0.1c-0.4-0.3-1.7-0.9-2.4-1.1c0.2-0.3,0.6-0.7,0.7-0.8C113.3,57.6,113.3,57.6,113.4,57.6 M112.3,58.8
		c0.5,0,1.9,0.6,2.4,1c0.2,0.1,0.4,0.2,0.7,0.2c0.4,0,0.8-0.2,1-0.5c0.1-0.2,0.2-0.6-0.1-1.1c-0.3-0.6-1.5-1.1-2.3-1.2
		c0.1-0.1,0.2-0.2,0.2-0.4l0.1-0.2c0.1-0.1,0.2-0.1,0.4-0.1c0.8,0,2.3,0.7,3.1,1.5c0.1,0.1,0.2,0.1,0.2,0c0.4-0.2,1-0.3,1.7-0.3
		c0.5,0,0.8,0.1,0.9,0.1c0.1,0.4,0.1,1.2,0,2.1c-0.4,0.3-1.5,0.6-2.2,0.8c-0.3,0.1-0.6,0.2-0.8,0.3c-0.9,0.3-2.2,0.5-3.4,0.5
		c-0.2,0-0.3,0-0.4,0c-0.7-1.1-1.5-1.8-2.1-1.8c-0.2,0-0.3,0-0.4,0.1C111.3,59.6,111.5,59.3,112.3,58.8 M120.5,57.5
		c-0.2-0.1-0.5-0.1-0.9-0.1c-0.6,0-1.2,0.1-1.7,0.3c-0.8-0.8-2.1-1.4-3.1-1.5c0-0.3,0-0.5,0-0.8c0.1,0,0.1,0,0.2,0
		c1,0.1,1.9,0,2.6-0.1c0.7-0.2,1-0.4,1-0.5s-0.4-0.2-1.1-0.4c-0.6-0.1-1.5-0.3-2.4-0.4c-0.1,0-0.2,0-0.3,0c0-0.4,0-0.9,0.1-1.3v-0.1
		c0.3,0.1,0.7,0.1,1.3,0.2c0.7,0.1,1.3,0.1,2,0.1c0.5,0,1,0,1.4-0.1c0.4,0,0.6-0.1,0.9-0.1c0,0.2,0,0.3,0,0.5
		C120.6,54.7,120.6,56.6,120.5,57.5 M113,47.4c-0.1-0.1-0.2-0.2-0.3-0.3V47C112.9,47.2,113,47.3,113,47.4 M112.4,48.7
		c0,0.1-0.2,0.1-0.3,0.1c-0.1,0-0.1,0-0.2,0l0,0c0,0,0,0,0-0.1c0.1-0.2,0.1-0.3,0-0.5c0.1,0,0.1,0,0.2-0.1c0.1,0,0.1-0.1,0.2-0.2
		C112.4,48.4,112.5,48.6,112.4,48.7 M112.6,47.7L112.6,47.7c0.2,0.2,0.2,0.2,0.1,0.4C112.7,47.9,112.6,47.8,112.6,47.7 M112.5,46.2
		c-0.1,0.4-0.1,0.7-0.2,1.1c-0.1,0.2-0.1,0.3-0.2,0.5c-0.1,0.1-0.2,0.2-0.3,0.2c-0.1,0-0.1,0-0.2,0l-0.1-0.1
		c-0.1-0.1-0.1-0.3-0.1-0.5c0,0,0-0.2,0-0.4c0-0.1,0-0.3,0-0.4c0-0.1,0.1-0.6,0.2-1c0.1-0.5,0.1-0.6,0-0.6s-0.2,0.1-0.3,0.5
		c-0.2,0.4-0.2,1-0.2,1.1s0,0.2,0,0.3c0-0.1-0.1-0.1-0.1-0.2c0-0.1,0-0.1,0-0.2c0-0.1,0.1-0.1,0.1-0.2c0-0.1,0-0.1,0-0.2
		c0,0-0.1,0-0.2,0c0,0-0.1,0.1-0.2,0.1c-0.1,0.1-0.1,0.2-0.1,0.4s0.1,0.3,0.1,0.4c0.1,0.1,0.1,0.2,0.2,0.3l0.1,0.1
		c0,0.2,0.1,0.4,0.2,0.6c0.1,0.1,0.1,0.2,0.3,0.3c0.1,0,0.1,0.1,0.2,0.1c0,0.1,0,0.2,0,0.3s-0.1,0.2-0.3,0.2c-0.1,0-0.3,0-0.4-0.1
		c-0.2-0.1-0.3-0.2-0.5-0.3c-0.6-0.4-0.9-1.1-1-1.8s-0.1-1.5,0.2-2.2c0,0,0-0.2,0.1-0.4c0-0.1,0.1-0.2,0.2-0.4
		c0.8,0.5,2.1,0.8,2.9,0.9c0,0.2,0,0.3,0,0.3C112.6,45.4,112.6,45.8,112.5,46.2 M109.5,42.8c0.1-0.3,0.3-0.8,0.5-1.5
		c0.9-3.2,2.8-9.7,6.3-12.5c0.4,0.3,0.8,0.6,1.3,0.8c-0.3,0.2-1,0.9-2,2.2c0-0.2,0.1-0.4,0.1-0.6c0.1-0.4,0.1-0.6,0-0.6
		s-0.2,0.1-0.3,0.5s-0.2,1-0.3,1l-0.1,0.4l-0.1,0.4c-0.1,0.7-0.3,1.5-0.4,2.2s-0.2,1.5-0.3,2.2c-0.1,0.7-0.2,1.5-0.3,2.2
		c-0.1,0.8-0.2,1.5-0.3,2.3c0,0.4-0.1,0.8-0.1,1.1c0,0.2,0,0.4,0,0.7c-0.1,0.3-0.2,0.5-0.3,0.6c-0.6,0-3.2-0.6-3.6-1.3
		C109.5,42.9,109.5,42.9,109.5,42.8 M111.6,34.6c0.1,0.1,0.1,0.1,0.2,0.2c-0.3,0.6-0.5,1.2-0.7,1.9c-0.2-0.4-0.4-0.7-0.6-0.9
		C110.6,35.4,111.2,34.8,111.6,34.6 M111.8,22.7l0.2-0.1l0.2-0.1l0.4-0.2c0.1,0,0.1-0.1,0.2-0.1c0,0,0,0,0-0.1c0,0,0,0-0.1,0
		c0,0-0.1,0-0.2,0c-0.2,0-0.4,0.1-0.4,0.1l-0.2,0.1l-0.2,0.1h-0.1c-0.1-0.3-0.3-0.6-0.4-1c0.1,0,0.3,0,0.4,0h0.2h0.2l0.4,0.1
		c0.2,0,0.2,0,0.3,0c0,0,0-0.1-0.2-0.1c-0.2-0.1-0.4-0.1-0.4-0.1c-0.1,0-0.1,0-0.2,0h-0.2c-0.2,0-0.3,0-0.5,0
		c-0.1-0.2-0.2-0.5-0.2-0.8c0.2-0.1,0.4-0.3,0.5-0.4c0.5-0.4,0.7-0.7,0.7-0.9c-0.1-0.2-0.5-0.3-1.1-0.2c-0.1,0-0.2,0-0.4,0
		c0-0.2,0-0.4-0.1-0.7c0-0.8,0-1.6,0.1-2.4c0.9-0.2,1.4-0.5,1.4-0.8c0-0.2-0.4-0.4-1-0.6c-0.1,0-0.1,0-0.2,0
		c0.4-1.8,1.2-3.3,2.4-4.6c1.7-1.8,4.1-2.9,6.7-3.2c0,0.2,0,0.3,0,0.5c-0.7,0.1-1.3,0.2-1.8,0.4c-0.8,0.3-1.2,0.6-1.1,0.7
		s0.5,0.2,1.3,0.3c0.5,0,1.2,0.1,1.9,0.1c0,0.2,0.1,0.3,0.1,0.5c-0.4,0.1-0.7,0.2-0.9,0.3c-0.5,0.2-0.8,0.4-0.8,0.5
		c0,0.2,0.9,0.6,2,0.7c0.2,0.7,0.5,1.2,0.6,1.2c0.2,0,0.5-0.4,0.7-1.2c0.4,0,0.8-0.1,1.1-0.2c0.5-0.1,0.8-0.3,0.8-0.4
		s-0.3-0.4-0.7-0.6c-0.2-0.1-0.5-0.2-0.8-0.3c0-0.2,0.1-0.3,0.1-0.5c0.7,0,1.2-0.1,1.7-0.1c0.7-0.1,1.2-0.1,1.3-0.2
		c0-0.1-0.4-0.5-1.1-0.8c-0.5-0.2-1-0.3-1.7-0.4c0-0.2,0-0.3,0-0.5c2.6,0.3,4.9,1.4,6.6,3.2c1.2,1.3,2,2.8,2.4,4.6h-0.1
		c-0.6,0.2-1,0.4-1,0.6s0.5,0.5,1.3,0.7c0.1,0.8,0.1,1.6,0.1,2.4c0,0.2,0,0.4-0.1,0.6c-0.1,0-0.2,0-0.3,0c-0.6,0-1,0.1-1.1,0.2
		c-0.1,0.2,0.2,0.5,0.7,0.9c0.1,0.1,0.3,0.2,0.4,0.3c-0.1,0.3-0.2,0.6-0.2,0.9c-0.2,0-0.3,0-0.5,0c0,0-0.1,0-0.2,0h-0.2
		c0,0-0.3,0-0.4,0.1c-0.2,0.1-0.2,0.1-0.2,0.1s0.1,0.1,0.3,0l0.4-0.1h0.2h0.2c0.1,0,0.3,0,0.4,0c-0.1,0.3-0.3,0.7-0.4,1h-0.1
		l-0.2-0.1l-0.2-0.1c0,0-0.2-0.1-0.4-0.1c-0.1,0-0.2,0-0.2,0h-0.1c0,0,0,0,0,0.1c0,0,0.1,0,0.2,0.1l0.4,0.1l0.2,0.1l0.2,0.1h0.1
		c-0.3,0.7-0.8,1.2-1.2,1.8c-2.1,2.4-5.4,3.4-8.3,3.4v0.2l0,0v-0.2c-2.9,0-6.2-1-8.3-3.4C112.5,24,112.1,23.4,111.8,22.7L111.8,22.7
		 M110.8,7.4c0.8-0.7,1.8-1.1,2.7-1.1c0.7,0,1.7,0.2,2.4,1.4c-0.5,0.3-1,0.6-1.5,0.9c-0.4-0.5-0.8-0.5-1.1-0.5
		c-0.4,0-0.9,0.2-1.3,0.5c-0.5,0.4-0.7,1.2-0.5,1.9c0.1,0.3,0.3,0.5,0.5,0.7c-0.3,0.5-0.6,1-0.8,1.5c-0.6-0.3-1.1-0.8-1.3-1.5
		C109.4,9.9,109.8,8.3,110.8,7.4 M111.9,10.3c-0.2-0.5,0-1.1,0.4-1.4c0.3-0.3,0.7-0.4,1.1-0.4c0.3,0,0.6,0.1,0.8,0.4
		c-0.4,0.3-0.7,0.6-1,1c-0.3,0.3-0.6,0.6-0.8,1C112,10.7,111.9,10.5,111.9,10.3 M131.8,7.5c1,0.9,1.4,2.5,1,3.8
		c-0.2,0.7-0.7,1.2-1.3,1.5c-0.2-0.5-0.5-1-0.8-1.5c0.2-0.2,0.4-0.4,0.5-0.7c0.2-0.6,0-1.5-0.5-1.9c-0.4-0.3-0.9-0.5-1.3-0.5
		c-0.3,0-0.7,0.1-1.1,0.5c-0.5-0.3-0.9-0.6-1.5-0.9c0.7-1.1,1.7-1.4,2.4-1.4C130,6.4,131,6.8,131.8,7.5 M130.4,10.8
		c-0.3-0.4-0.5-0.7-0.8-1s-0.7-0.6-1-0.9c0.2-0.2,0.4-0.4,0.8-0.4c0.3,0,0.7,0.2,1.1,0.4c0.4,0.3,0.5,0.9,0.4,1.4
		C130.6,10.5,130.5,10.7,130.4,10.8 M116.6,28.6c0.1-0.1,0.3-0.2,0.4-0.3c0.9,0.7,2.4,1.1,4.2,1.1s3.5-0.4,4.5-1.1
		c0.1,0.1,0.3,0.2,0.4,0.4c-1,0.8-2.8,1.3-4.8,1.3C119.4,29.9,117.6,29.4,116.6,28.6 M125.2,27.9c0,0,0.1,0.1,0.2,0.1
		c-0.9,0.6-2.5,1-4.1,1s-2.9-0.3-3.8-0.9h0.1c0.1-0.1,0.2-0.1,0.3-0.2c1.1,0.3,2.3,0.4,3.5,0.4l0,0
		C122.7,28.3,123.9,28.1,125.2,27.9C125.1,27.8,125.1,27.8,125.2,27.9 M128.1,45.4c-0.3,0-0.8-0.2-1.3-0.5c0.1,0,0.2,0,0.3,0
		c0.3,0,0.6-0.1,1-0.1C128,45,128.1,45.2,128.1,45.4 M121.2,47.1c-0.1-0.3-0.2-1.2-0.2-2.1c0.3,0,0.5,0,0.8,0c0,0.4,0,0.9-0.1,1.3
		C121.6,46.8,121.4,47,121.2,47.1 M114.6,45.4c0-0.2,0-0.4,0-0.5c0.4,0,0.7,0.1,1.1,0.1h0.1C115.4,45.2,114.9,45.3,114.6,45.4
		 M114.6,45.8c0.5,0,1.3-0.3,1.9-0.8c0.5,0,1,0,1.5,0.1c0.8,0,1.5,0,2.3,0c0.1,0,0.2,0,0.3,0c0,0.2,0,0.5,0,0.7
		c0.1,1.2,0.2,1.6,0.4,1.7c-0.1,1.1-0.2,4.4-0.2,4.7c0,0-0.2,0.2-1.1,0.2c-1.9,0.2-4.7-0.1-5.1-0.4
		C114.6,51.6,114.6,48.5,114.6,45.8 M128.2,44.3c-0.4,0-0.7,0.1-1.1,0.1c-0.8,0.1-1.5,0.1-2.3,0.1s-1.5,0.1-2.3,0.1s-1.5,0-2.3,0
		s-1.5,0-2.3,0s-1.5-0.1-2.3-0.1c-0.4,0-0.7,0-1.1-0.1c-0.2,0-0.4,0-0.5-0.1h-0.1l0,0v-0.1c0-0.4,0-0.7,0-1.1c0-0.4,0.1-0.7,0.1-1.1
		c0.1-0.7,0.2-1.5,0.3-2.2c0.1-0.7,0.2-1.5,0.3-2.2c0.1-0.7,0.2-1.5,0.3-2.2c0.1-0.7,0.2-1.5,0.4-2.2l0.1-0.4l0.1-0.4l0,0l0,0h0.1
		c1-1.3,1.8-2.1,2.1-2.4c0,0,0,0,0-0.1c1,0.4,2.2,0.6,3.6,0.6c1.3,0,2.5-0.2,3.5-0.6l0,0c0.2,0.2,0.5,0.5,0.8,0.8
		c0.5,0.5,1,1.1,1.2,1.4l0,0c0,0.1,0.1,0.3,0.1,0.4l0.1,0.4c0.2,0.7,0.3,1.5,0.4,2.2s0.2,1.5,0.3,2.2s0.2,1.5,0.3,2.2
		s0.2,1.5,0.3,2.2s0.2,1.5,0.2,2.2c0,0.1,0,0.2,0,0.3l0,0C128.5,44.3,128.3,44.3,128.2,44.3 M128.7,44.3L128.7,44.3L128.7,44.3z
		 M129.8,47.4L129.8,47.4c-0.1,0.2-0.1,0.3-0.2,0.5C129.6,47.8,129.6,47.7,129.8,47.4 M129.7,47c-0.1,0.1-0.2,0.2-0.3,0.3
		C129.4,47.2,129.5,47.1,129.7,47C129.7,46.9,129.7,46.9,129.7,47"/>
	<path d="M122.9,32.7c0,1.3,0.2,2.2,0.6,2.7c0.3,0.3,0.7,0.5,1.2,0.5c0.4,0,1-0.1,1.4-0.5c0.4-0.5,0.5-1.3,0.4-2.6
		c0-0.1-0.1-0.2-0.2-0.2h-3.1C123,32.5,122.9,32.6,122.9,32.7 M124.8,35.4c-0.4,0-0.7-0.1-0.9-0.3c-0.4-0.4-0.5-1.1-0.5-2.1h2.8
		c0.1,1,0,1.7-0.3,2.1C125.6,35.3,125.3,35.4,124.8,35.4"/>
	<path d="M116.3,11.2c-0.2,0-0.3,0-0.3,0c-0.6,0-1.1,0.2-1.5,0.5c0,0-0.1,0.1-0.2,0.2s-0.1,0.1-0.2,0.2c0,0-0.1,0.1-0.2,0.2
		s-0.2,0.3-0.2,0.4c-0.1,0.2-0.1,0.3-0.1,0.3c0,0.1,0,0.1,0.1,0.1h0.1c0.1,0,0.1-0.1,0.2-0.3s0.3-0.5,0.4-0.6s0.1-0.1,0.2-0.2
		s0.2-0.2,0.2-0.2c0.4-0.3,0.8-0.5,1.3-0.4c0,0,0.1,0,0.2,0s0.2,0,0.2,0s0.3,0.1,0.5,0.3l0.1,0.1l0.1,0.1c0.1,0,0.1,0,0.1,0v-0.1
		v-0.1c0-0.1-0.1-0.1-0.1-0.2c-0.1-0.1-0.3-0.2-0.4-0.3c-0.1-0.1-0.2-0.1-0.3-0.1C116.5,11.2,116.4,11.2,116.3,11.2"/>
	<path d="M125.2,12.1h0.1c0,0,0.1,0,0.1-0.1l0.1-0.1c0.1-0.1,0.2-0.2,0.3-0.2c0.1-0.1,0.2-0.1,0.2-0.1c0.1,0,0.2,0,0.2,0
		c0.1,0,0.2,0,0.2,0c0.5,0,0.9,0.2,1.3,0.5c0,0,0.1,0.1,0.2,0.2s0.1,0.1,0.2,0.2c0,0,0.2,0.3,0.4,0.6c0.1,0.1,0.1,0.2,0.2,0.3
		c0.1,0,0.1,0.1,0.1,0c0,0,0.1,0,0.1-0.1s0-0.2,0-0.3s-0.1-0.3-0.2-0.4s-0.1-0.2-0.2-0.2c-0.1-0.1-0.1-0.2-0.2-0.2
		c-0.1-0.1-0.2-0.2-0.2-0.2c-0.4-0.4-1-0.6-1.5-0.6c0,0-0.1,0-0.3,0c-0.1,0-0.2,0-0.3,0.1c0,0-0.1,0-0.3,0.1
		c-0.1,0.1-0.3,0.2-0.4,0.3C125.2,12,125.2,12,125.2,12.1s0,0.1,0,0.1C125.1,12,125.2,12.1,125.2,12.1"/>
	<path d="M120.1,19.4c0,0.2,0.1,0.4,0.3,0.6s0.4,0.3,0.7,0.4c0,0.1,0,0.3,0,0.5c0,1.1,0,3,0,3.6c-0.7,0-1.4-0.1-2.1-0.3
		c0,0-0.2,0-0.4-0.1c-0.1,0-0.3-0.1-0.4-0.2c-0.1,0-0.6-0.3-0.9-0.6c-0.1-0.1-0.2-0.1-0.2-0.2C117,23,117,23,116.9,23
		c-0.1-0.1-0.1-0.1-0.2,0c0,0,0,0.1,0,0.2c0,0,0,0.1,0.1,0.2c0,0.1,0.1,0.2,0.2,0.3c0.2,0.2,0.4,0.3,0.6,0.5
		c0.2,0.1,0.4,0.2,0.4,0.2c0.2,0.1,0.3,0.1,0.4,0.2c0.3,0.1,0.4,0.1,0.4,0.1c0.8,0.2,1.6,0.3,2.5,0.4c0.8,0,1.7-0.1,2.5-0.3
		c0,0,0.2,0,0.4-0.1c0.1,0,0.3-0.1,0.4-0.2c0,0,0.2-0.1,0.4-0.2s0.4-0.3,0.6-0.4c0.1-0.1,0.2-0.2,0.2-0.2c0.1-0.1,0.1-0.1,0.1-0.2
		s0-0.1,0-0.2c0,0-0.1,0-0.2,0c0,0-0.1,0.1-0.2,0.1l-0.2,0.2c-0.3,0.3-0.9,0.5-0.9,0.5c-0.1,0.1-0.3,0.1-0.4,0.2
		c-0.2,0.1-0.4,0.1-0.4,0.1c-0.7,0.2-1.5,0.3-2.2,0.3c0-0.6,0-2.5,0-3.6c0-0.2,0-0.3,0-0.5c0.4-0.1,0.6-0.3,0.7-0.4
		c0.2-0.2,0.2-0.4,0.2-0.6c0-0.1,0-0.1-0.1-0.2s-0.4-0.2-0.9-0.2c-0.4,0-0.7,0-0.9,0.1C120.2,19.2,120.2,19.4,120.1,19.4
		 M121.4,19.4c0.3,0,0.5,0,0.6,0.1c0,0.1,0,0.1-0.1,0.2s-0.3,0.3-0.6,0.3s-0.5-0.2-0.6-0.3c-0.1-0.1-0.1-0.2-0.1-0.2
		C120.7,19.5,121,19.4,121.4,19.4"/>
	<path d="M115.9,14.4c-1,0.1-1.5,1.8-1.4,3.3c0.1,1.4,0.7,2.3,1.5,2.3c0,0,0,0,0.1,0c1.1-0.1,1.6-1.5,1.5-2.9
		C117.6,15.8,117,14.3,115.9,14.4 M115.7,17.5c-0.7,0-0.6-1.9,0-2S116.4,17.4,115.7,17.5"/>
	<path d="M126.4,20C126.5,20,126.5,20,126.4,20c0.9,0,1.5-0.9,1.6-2.3c0.1-1.5-0.4-3.2-1.4-3.3c-1.1-0.1-1.6,1.4-1.7,2.7
		C124.9,18.5,125.3,20,126.4,20 M126.1,17.5c-0.7,0-0.6-2,0-2C126.8,15.6,126.8,17.5,126.1,17.5"/>
</g>
</svg>
