<?xml version="1.0" encoding="utf-8"?>
<!-- Generator: Adobe Illustrator 24.0.1, SVG Export Plug-In . SVG Version: 6.00 Build 0)  -->
<svg version="1.1" id="圖層_3" xmlns="http://www.w3.org/2000/svg" xmlns:xlink="http://www.w3.org/1999/xlink" x="0px" y="0px"
	 viewBox="0 0 158.2 68.4" style="enable-background:new 0 0 158.2 68.4;" xml:space="preserve">
<style type="text/css">
	.st0{fill:#0A6FB4;}
	.st1{fill:#F4D924;}
	.st2{fill:#FFFFFF;}
	.st3{fill:#178DC0;}
	.st4{fill:#004086;}
	.st5{fill:#CA142A;}
	.st6{fill:#744720;}
</style>
<g>
	<polygon class="st0" points="13,26.8 26.3,26.8 26.3,31.1 22.1,31.1 21.7,36.9 28.4,36.9 28.4,41.6 13,41.6 13,37.3 16.2,37.3 
		16.9,31 13,31 	"/>
	<path class="st0" d="M46.4,38c0-3.4-2.8-6.2-6.2-6.2c-1.3,0-2.5,0.4-3.4,1h-0.2l0.4-3.9h7.3v-4.6h-17v4.4h4.2l-1,9.3h3.6H36
		l2.3-1.5l1.6,2l-4.5,3.3L32,44.2l2.9,3.2l8.4-3.9v-0.1C45.1,42.4,46.4,40.4,46.4,38"/>
	<path class="st0" d="M53.6,23.4c1.6,0,2.9,1.3,2.9,2.9s-1.3,2.9-2.9,2.9s-2.9-1.3-2.9-2.9C50.7,24.7,52,23.4,53.6,23.4"/>
	<path class="st0" d="M65.3,31.9h-3.9V31h3.9V31.9z M65.3,34.9h-3.9v-0.8h3.9V34.9z M69.9,34.1h3.9v0.8h-3.9V34.1z M69.9,31h3.9v0.9
		h-3.9V31z M78.1,37.9h-8.3v-0.7H74v-0.1c2.1-0.2,3.8-2,3.8-4.2s-1.7-4-3.8-4.2l0,0h-4.2v-0.9h6.3v-3.5h-6.3v-0.8h-4.5v0.8h-6.4v3.5
		h6.4v0.9h-4c-2.3,0-4.2,1.9-4.2,4.2c0,2.3,1.9,4.2,4.2,4.2l0,0h4v0.7h-8.5v3.7h8.6v1.1h4.5v-1.1h8.2L78.1,37.9L78.1,37.9z"/>
	<path class="st0" d="M78.4,42.2c0,0-2,1.4-6.3,1.4h-13v-0.1c-1.9,0-3.3-1.5-3.3-3.4v-7.5c0-1.4-1.1-2.5-2.5-2.5
		c-0.5,0-0.9,0.1-1.3,0.3l0,0l-4.9,2.8l2.3,3.4l2.1-1.3v5.1c-2.4,0.7-4.2,2.9-4.2,5.6c0,0.3,0,0.6,0.1,0.8h3.8
		c0-1.4,0.9-2.5,2.1-2.9c1.1,2,3.2,3.4,5.6,3.4H70c6.3,0.3,9.3-4,9.3-4L78.4,42.2z"/>
	<path class="st0" d="M104.5,31.8c-1.2,0-2.2-1-2.2-2.2s1-2.2,2.2-2.2s2.2,1,2.2,2.2C106.7,30.8,105.7,31.8,104.5,31.8 M104.5,23.8
		c-3.2,0-5.8,2.6-5.8,5.8c0,3.2,2.6,5.8,5.8,5.8c3.2,0,5.8-2.6,5.8-5.8C110.4,26.4,107.8,23.8,104.5,23.8"/>
	<path class="st0" d="M88.6,28.7H86l0.7-0.9h1.9V28.7z M96.3,32.9l-0.5-0.8H98v-3.4h-4.1v-0.8h3.9v-3.5H86.5l-1-1.2l-5.9,6.2
		l2.4,1.2V32h5.2l-0.5,0.7h-4.8c0.9,1.6,2.6,2.7,4.6,2.7c2.3,0,4.2-1.5,4.9-3.5c0.2,1.8,1.8,3.2,3.6,3.2c1.5,0,2.8-0.9,3.4-2.3h-2.1
		V32.9z"/>
	<path class="st0" d="M86.1,40.1c0.4-0.5,1-0.9,1.7-0.9h16.3c0.7,0,1.3,0.4,1.7,0.9H86.1z M104.1,43.1H87.8c-0.7,0-1.3-0.3-1.6-0.8
		h19.5C105.3,42.8,104.7,43.1,104.1,43.1 M104.4,35.9L104.4,35.9H87.7l0,0c-2.9,0.1-5.1,2.4-5.1,5.2c0,2.9,2.4,5.3,5.3,5.3
		c0.2,0,0.4,0,0.6,0h15c0.2,0,0.4,0,0.6,0c2.9,0,5.3-2.3,5.3-5.3C109.3,38.4,107.1,36.1,104.4,35.9"/>
	<path class="st1" d="M127.9,52.4c-0.1,1.3-0.1,2.8-0.2,4c0.9,0,2.4,0.7,3.2,1.6c1.1-0.5,2.7-0.3,2.8-0.1c0.1-0.9,0.1-3.5,0.1-5.5
		C133,52.8,129.2,52.7,127.9,52.4"/>
	<path class="st1" d="M134.8,52.4c0,1.9,0.1,4.6,0.1,5.4c0-0.2,1.5-0.4,2.6,0.1c0.8-0.9,2.5-1.6,3.4-1.6c-0.1-1.2-0.1-2.7-0.2-4
		C139.5,52.7,135.7,52.8,134.8,52.4"/>
	<path class="st1" d="M123.7,33.6c-0.3-0.2-0.6-0.2-0.8,0c-0.2,0.1-0.4,0.3-0.5,0.6c-0.1,0.3-0.1,0.5,0,0.8c0.1,0.2,0.2,0.4,0.3,0.5
		c0.6,0.4,1.1,1,1.4,1.8c0.3-0.8,0.6-1.6,1-2.5C124.6,34.3,124.2,33.9,123.7,33.6"/>
	<path class="st1" d="M126.8,44.5c0-0.1,0-0.3,0-0.7c-0.1,0.3-0.3,0.6-0.3,0.7l0.1,0.1c0.3,0.2,0.6,0.4,0.9,0.6c0-0.2,0-0.4,0-0.6
		C127,44.6,126.8,44.5,126.8,44.5"/>
	<path class="st2" d="M126.6,61.9c-1.4-2.3-2.6-1.9-2.8-1.1c0,0.3,0,0.7,0,0.9c0.2,0.8,3.5,1.8,6.8,0.6c0.9-0.3,3-0.7,3.1-1.4
		c0-0.2,0.1-0.5,0.1-0.8c-0.6,0.5-2.4,0.9-3.2,1.2C129.3,61.8,127.7,61.9,126.6,61.9"/>
	<path class="st2" d="M142.1,61.8c-1.1,0.1-2.8,0-4.1-0.5c-0.8-0.3-2.6-0.7-3.2-1.2c0,0.3,0,0.5,0.1,0.8c0.1,0.7,2.2,1.1,3.1,1.4
		c3.2,1.2,6.6,0.3,6.8-0.6c0.1-0.3,0.1-0.6,0-0.9l-0.1-0.1C144.3,60.1,143,60.2,142.1,61.8"/>
	<path class="st3" d="M131,58c-0.8-0.9-2.4-1.6-3.2-1.6c-0.3,0-0.5,0.1-0.6,0.2c-0.3,0.4-0.4,0.6-0.6,0.9c-0.1,0-0.2,0-0.3,0
		c-0.3,0.1-1,0.9-1,1.1c-1.3,0.9-1.3,1.4-1.4,2.2c0.2-0.8,1.4-1.2,2.8,1.1c1.1,0.1,2.7-0.1,4-0.5c0.8-0.3,2.6-0.7,3.2-1.2
		c0.1-0.8,0-1.8-0.1-2.3C133.7,57.6,132,57.5,131,58"/>
	<path class="st3" d="M137.5,58c-1.1-0.5-2.5-0.3-2.6-0.1c-0.1,0.5-0.1,1.4-0.1,2.3c0.6,0.5,2.4,0.9,3.2,1.2c1.3,0.5,3,0.6,4.1,0.5
		c0.8-1.7,2.2-1.8,2.6-1.2l0.1,0.1c-0.1-0.8-0.1-1.3-1.4-2.2c0-0.2-0.7-1.1-1-1.1c-0.1,0-0.2,0-0.3,0c-0.2-0.2-0.3-0.5-0.6-0.9
		c-0.1-0.1-0.3-0.2-0.6-0.2C140,56.4,138.3,57.1,137.5,58"/>
	<path class="st4" d="M134.3,44.9c-2.8,0-5.7-0.1-6.9-0.2c0,0.2,0,0.4,0,0.6c0,2.9,0,6.6,0,6.9c0,0.1,0.2,0.2,0.4,0.2
		c1.3,0.3,5.1,0.5,6,0c0.1-0.1,0.2-0.1,0.2-0.2c0-0.3,0.1-4,0.2-4.8c0.1,0,0.1-0.1,0.2-0.1c0.1,0.3,0.2,4.7,0.2,4.9
		c0,0.1,0.1,0.1,0.2,0.2c0.9,0.4,4.7,0.3,6,0c0.3-0.1,0.4-0.1,0.4-0.2c0.1-0.4,0.1-4.7,0-7.6C140,44.7,137.2,44.8,134.3,44.9"/>
	<path class="st1" d="M122.8,43.5c-1,1.7-0.9,4.2,0.5,5.2c0.5,0.4,1,0.4,1.2,0.3c0.2,0,0.3,0,0.6,0c0.4,0,0.6-0.3,0.5-0.7
		c0.1,0,0.2-0.1,0.2-0.2c0.1-0.2,0.2-0.3,0.1-0.4c0,0,0,0,0.1-0.1c0.3-0.4,0.2-0.6-0.4-1.1c0.1-0.3,0.1-0.7,0.2-1.1
		c0.1-0.4,0.1-0.7,0.1-1C125.1,44.5,123.5,44.1,122.8,43.5"/>
	<path class="st1" d="M142.6,44.5c0,0.2,0,0.5,0.1,0.9s0.1,0.8,0.2,1.1c-0.6,0.5-0.8,0.7-0.5,1.1c0,0,0,0,0.1,0.1
		c0,0.1,0,0.3,0.1,0.4c0.1,0.1,0.1,0.1,0.2,0.2c-0.1,0.4,0.1,0.6,0.5,0.7c0.3,0,0.4,0,0.6,0c0.2,0.2,0.7,0.1,1.2-0.2
		c1.4-0.9,1.7-3.4,0.8-5.1C145.1,44.1,143.3,44.5,142.6,44.5"/>
	<path class="st5" d="M145.9,43.6c0.3-0.2,0.5-0.4,0.4-0.6c-1.2-4.2-2.9-10.8-6.8-14.4c-2.2,1.9-8,2-10.2-0.1
		c-1.8,1.4-3.2,3.8-4.2,6.2c-0.4,0.8-0.7,1.7-1,2.5c-0.9,2.6-1.5,4.9-1.7,5.5c-0.1,0.3,0.1,0.6,0.4,0.8c0.8,0.6,2.4,0.9,3.2,1.1
		c0.2,0,0.3,0,0.4,0c0,0,0.1,0,0.1-0.1c0.1-0.1,0.2-0.4,0.3-0.7c0,0.4,0,0.6,0,0.7c0,0,0.2,0.1,0.6,0.1c1.2,0.1,4.1,0.3,6.9,0.2
		c2.9,0,5.7-0.2,6.9-0.3c0.4-0.1,0.6-0.1,0.6-0.2c0-0.1,0-0.5-0.1-1c0.2,0.6,0.4,1.1,0.5,1.1c0,0,0.1,0,0.3,0
		C143.3,44.5,145.1,44.1,145.9,43.6 M137.8,35.6c-1,0-1.7-0.7-1.6-2.9h3.1C139.6,35.2,138.8,35.6,137.8,35.6"/>
	<path class="st5" d="M139.4,28.6c-0.2-0.2-0.5-0.4-0.8-0.6c-1.9,1.5-6.7,1.7-8.6,0c-0.3,0.2-0.5,0.3-0.8,0.5
		C131.4,30.6,137.3,30.5,139.4,28.6"/>
	<path class="st1" d="M138.7,28c-0.1-0.1-0.3-0.2-0.4-0.3c-0.1-0.1-0.2-0.1-0.3-0.2c-1.2,0.4-2.5,0.5-3.7,0.5s-2.4-0.2-3.5-0.5
		c-0.1,0.1-0.3,0.1-0.4,0.2s-0.2,0.1-0.4,0.2C131.9,29.6,136.7,29.5,138.7,28"/>
	<path class="st5" d="M136.1,32.7c-0.1,2.2,0.6,2.9,1.6,2.9s1.9-0.4,1.5-2.9H136.1z"/>
	<path class="st2" d="M127.4,8.9c-0.6-1-1.6-0.7-2.2-0.2s-0.8,1.8,0.2,2.3C125.9,10.2,126.6,9.5,127.4,8.9"/>
	<path class="st2" d="M143.3,11.1c0.9-0.5,0.8-1.8,0.2-2.3c-0.6-0.5-1.7-0.8-2.2,0.1C142,9.5,142.7,10.3,143.3,11.1"/>
	<path class="st1" d="M129.6,20.6c1.6-0.8,3.3-1.5,4.6-1.5c1.3,0,3.3,0.8,4.8,1.7c1.8,1,3.3,2.2,3.5,4c1.4-1.6,2.4-3.6,2.5-6.3
		c0.1-2.1-0.2-3.9-0.8-5.5c2.5-1,2.1-4.3,0.6-5.7c-1.6-1.4-4.2-1.8-5.5,0.5c-1.6-0.8-3.4-1.2-5.1-1.2c-1.8,0-3.6,0.4-5.1,1.2
		c-1.2-2.3-3.9-1.9-5.5-0.6c-1.5,1.4-1.9,4.7,0.6,5.7c-0.6,1.6-1,3.4-0.8,5.5c0.2,2.6,1.1,4.7,2.5,6.3
		C126.1,22.7,127.7,21.5,129.6,20.6 M143.5,8.8c0.6,0.5,0.8,1.8-0.2,2.3c-0.6-0.9-1.3-1.6-2.1-2.2C141.8,8,142.8,8.3,143.5,8.8
		 M139.2,15.5c0.6,0.1,0.7,2,0,2C138.4,17.4,138.5,15.4,139.2,15.5 M128.7,17.5c-0.7,0-0.6-1.9,0-2S129.4,17.4,128.7,17.5
		 M125.1,8.7c0.6-0.5,1.7-0.8,2.2,0.2c-0.8,0.6-1.5,1.3-2.1,2.2C124.3,10.6,124.5,9.2,125.1,8.7"/>
	<path class="st2" d="M134.3,28.1c1.3,0,2.6-0.2,3.7-0.5c1.8-0.5,3.4-1.5,4.6-2.8c-0.2-1.8-1.7-3-3.5-4c-1.6-0.9-3.5-1.7-4.8-1.7
		s-3,0.7-4.6,1.5c-1.9,0.9-3.5,2.2-3.7,4.2c1.3,1.4,3,2.4,4.9,2.9C131.9,27.9,133.1,28.1,134.3,28.1 M135.2,19.4
		c0,0.2-0.3,0.8-0.9,0.8c-0.5,0-1-0.5-0.9-0.8C133.4,19.2,135.2,19.1,135.2,19.4"/>
	<path class="st6" d="M134.3,20.2c0.7,0,1-0.6,0.9-0.8c0-0.2-1.9-0.2-1.9,0.1C133.3,19.7,133.8,20.2,134.3,20.2"/>
	<path class="st2" d="M128.6,15.5c-0.6,0.1-0.7,2,0,2C129.4,17.4,129.3,15.4,128.6,15.5"/>
	<path class="st2" d="M139.1,17.5c0.7,0,0.6-1.9,0-2C138.5,15.4,138.4,17.4,139.1,17.5"/>
	<path d="M146.3,44c0-0.1-0.1-0.2-0.1-0.3c0.1-0.1,0.2-0.1,0.2-0.2c0.2-0.2,0.1-0.4,0.1-0.5c-0.1-0.3-0.2-0.7-0.3-1
		c-1.2-4.3-2.9-10.1-6.6-13.4c-0.3-0.2-0.5-0.5-0.8-0.7c-0.1-0.1-0.2-0.1-0.3-0.2c1.2-0.4,2.3-1,3.3-1.8s1.8-1.8,2.4-2.9
		c0.1,0.1,0.3,0.1,0.4,0.2l0.2,0.1l0.2,0.1c0,0,0.2,0.1,0.4,0.2c0.2,0.1,0.2,0.1,0.3,0c0,0,0-0.1-0.2-0.2s-0.4-0.2-0.4-0.2l-0.2-0.1
		l-0.2-0.1c-0.1-0.1-0.3-0.1-0.4-0.2c0.2-0.4,0.3-0.7,0.5-1.1h0.1h0.2h0.2c0,0,0.3,0,0.4,0c0.2,0,0.2,0,0.3-0.1c0,0,0-0.1-0.2-0.1
		s-0.4,0-0.4,0h-0.2H145l0,0c0.3-0.9,0.5-1.9,0.5-2.9c0.1-2-0.1-3.8-0.8-5.4c0.7-0.4,1.3-0.9,1.6-1.7c0.5-1.4,0-3.2-1.1-4.2
		c-0.8-0.7-1.9-1.2-2.9-1.2c-1.2,0-2.1,0.6-2.7,1.6c-1.5-0.7-3.3-1.1-5-1.1l0,0c-1.8,0-3.5,0.4-5,1.1c-0.6-1-1.6-1.6-2.8-1.6
		c-1,0-2.1,0.4-2.9,1.2c-1.1,1-1.6,2.8-1.1,4.2c0.3,0.8,0.8,1.4,1.6,1.7c-0.6,1.6-0.9,3.4-0.8,5.4c0.1,1,0.2,2,0.5,2.9
		c0,0,0,0-0.1,0h-0.2h-0.2c0,0-0.3,0-0.4,0.1c-0.2,0-0.2,0.1-0.2,0.1s0.1,0.1,0.3,0c0.2,0,0.4,0,0.4,0h0.2h0.2h0.1
		c0.1,0.4,0.3,0.8,0.5,1.1c-0.1,0.1-0.3,0.1-0.4,0.2l-0.2,0.1l-0.2,0.1c0,0-0.2,0.1-0.4,0.2c-0.2,0.1-0.2,0.2-0.2,0.2s0.1,0,0.3,0
		c0.2-0.1,0.4-0.2,0.4-0.2l0.2-0.1l0.2-0.1c0.1-0.1,0.3-0.1,0.4-0.2c0.6,1.1,1.4,2.1,2.4,3c1,0.8,2.1,1.4,3.4,1.8
		c-0.1,0.1-0.2,0.1-0.3,0.2c-0.3,0.2-0.5,0.3-0.8,0.5c-1.8,1.4-3.1,3.7-4.2,6c-0.4-0.4-0.8-0.7-1.2-0.9c-0.3-0.2-0.7-0.2-1,0
		c-0.3,0.1-0.5,0.4-0.6,0.7c-0.1,0.3-0.1,0.6,0,0.9s0.2,0.5,0.4,0.6c0.6,0.3,1,0.9,1.3,1.6c-0.5,1.5-0.9,2.9-1.2,4
		c-0.2,0.7-0.3,1.2-0.4,1.4s-0.1,0.5,0.1,0.7c0.1,0.1,0.2,0.2,0.3,0.3l0,0c-0.1,0.1-0.1,0.3-0.2,0.4c-0.1,0.2-0.1,0.4-0.2,0.4
		c-0.2,0.8-0.3,1.6-0.2,2.4c0.1,0.4,0.2,0.8,0.4,1.2c0.2,0.4,0.5,0.7,0.8,0.9c0.2,0.1,0.3,0.2,0.5,0.3s0.4,0.1,0.7,0.1
		c0.1,0,0.1,0,0.2,0s0.2,0,0.4,0c0.1,0,0.1,0,0.2,0c0.4,0,0.6-0.2,0.7-0.4c0-0.1,0.1-0.2,0.1-0.4c0.1,0,0.1-0.1,0.2-0.2
		c0.1-0.2,0.2-0.3,0.2-0.5l0,0c0.4-0.5,0.2-0.8-0.4-1.3c0-0.1,0-0.2,0.1-0.3c0.1-0.4,0.1-0.7,0.2-1.1c0,0,0-0.1,0-0.3
		c0.1,0,0.1,0,0.1,0s0,0,0.1,0h0.1c0.2,0.2,0.5,0.4,0.8,0.6c0,2.9,0,6.5,0,6.8c0,0.1,0,0.2,0.4,0.3c0,0.1,0,0.1,0,0.2
		c0,1.1-0.1,2.4-0.1,3.5c-0.2,0-0.4,0.1-0.5,0.2l0,0l-0.2,0.2c-0.1,0.2-0.3,0.4-0.4,0.5c-0.1,0-0.2,0-0.3,0c-0.3,0.1-1,0.8-1.1,1.2
		c-1.3,0.9-1.4,1.5-1.4,2.2v0.1c0,0.4,0,0.7,0,1c0.2,0.7,1.8,1.3,3.8,1.3c1.1,0,2.3-0.2,3.3-0.6c0.2-0.1,0.5-0.2,0.8-0.2
		c1.1-0.3,2.3-0.7,2.4-1.3c0-0.2,0.1-0.5,0.1-0.8c0.1-0.8,0.1-1.8-0.1-2.3c0.1-0.8,0.1-2.8,0.1-4.7c0-0.2,0-0.5,0-0.7
		c0.1-0.1,0.2-0.2,0.2-0.3c0-0.3,0-2.1,0.1-3.4c0.1,1.3,0.1,3.1,0.1,3.4c0,0.1,0.1,0.2,0.2,0.3c0,0.2,0,0.4,0,0.6
		c0,1.8,0.1,3.9,0.1,4.7c-0.1,0.5-0.1,1.5-0.1,2.3c0,0.3,0,0.6,0.1,0.8c0.1,0.7,1.3,1,2.4,1.3c0.3,0.1,0.6,0.2,0.8,0.2
		c1,0.4,2.2,0.6,3.3,0.6c2,0,3.6-0.6,3.8-1.3c0.1-0.3,0.1-0.6,0-1v-0.1c-0.1-0.7-0.1-1.3-1.4-2.2c-0.2-0.4-0.8-1.1-1.1-1.2
		c-0.1,0-0.2,0-0.3,0c-0.1-0.1-0.2-0.3-0.4-0.5l-0.2-0.2l0,0c-0.1-0.1-0.3-0.2-0.5-0.2c0-1-0.1-2.3-0.2-3.5c0-0.1,0-0.1,0-0.2
		c0.4-0.1,0.4-0.3,0.4-0.3c0.1-0.4,0.1-4.5,0-7.5c0.1,0,0.2,0,0.3-0.1h0.1c0,0,0,0,0.1,0c0,0,0,0,0.1-0.1l0,0
		c0.1,0.1,0.1,0.2,0.1,0.2c0.1,0,0.1,0.1,0.2,0.1c0,0.2,0,0.3,0,0.3c0,0.4,0.1,0.8,0.1,1.2c0,0.1,0,0.2,0,0.3
		c-0.6,0.5-0.8,0.8-0.4,1.3l0,0c0,0.1,0,0.3,0.2,0.5c0,0.1,0.1,0.1,0.2,0.2c0,0.1,0,0.3,0,0.4c0.1,0.2,0.2,0.4,0.7,0.4
		c0.1,0,0.2,0,0.3,0c0.1,0,0.2,0,0.3,0c0,0,0.1,0,0.1,0.1c0.3,0.1,0.5,0,0.7-0.1s0.4-0.2,0.6-0.3c0.4-0.2,0.6-0.5,0.8-0.9
		c0.2-0.4,0.4-0.7,0.4-1.1c0.2-0.8,0.1-1.6-0.1-2.4C146.4,44.5,146.4,44.3,146.3,44 M145,48.5c-0.1,0.1-0.3,0.2-0.5,0.2
		c-0.2,0.1-0.3,0.1-0.4,0c-0.1,0-0.2-0.1-0.2-0.2c0-0.1,0-0.2,0-0.3c0.1,0,0.1,0,0.2-0.1s0.2-0.2,0.3-0.3c0.1-0.2,0.2-0.4,0.2-0.6
		l0.1-0.1c0.1-0.1,0.1-0.2,0.2-0.3s0.1-0.2,0.2-0.4c0-0.2,0-0.3-0.1-0.4c-0.1-0.1-0.1-0.1-0.1-0.1c-0.1-0.1-0.1-0.1-0.2,0
		c0,0,0,0.1,0,0.2c0,0,0,0.1,0.1,0.2c0,0.1,0,0.1,0,0.2c0,0.1-0.1,0.1-0.1,0.2c0-0.1,0-0.2,0-0.3s-0.1-0.7-0.2-1.1
		c-0.1-0.5-0.2-0.6-0.3-0.5c-0.1,0-0.1,0.2,0,0.6c0.1,0.4,0.1,1,0.1,1c0,0.1,0,0.3,0,0.4c0,0.2,0,0.4,0,0.4c0,0.2-0.1,0.3-0.1,0.5
		c0,0.1-0.1,0.1-0.1,0.1s-0.1,0-0.2,0s-0.2-0.1-0.3-0.2c-0.1-0.1-0.1-0.3-0.2-0.5c-0.1-0.4-0.1-0.7-0.2-1.1c0-0.4-0.1-0.8-0.1-1.1
		c0,0,0-0.1,0-0.3c0.7-0.1,2.1-0.3,3-0.8c0,0.1,0.1,0.2,0.1,0.3c0.1,0.2,0.1,0.4,0.1,0.4c0.2,0.7,0.2,1.5,0.1,2.2
		C145.9,47.5,145.6,48.2,145,48.5 M142.9,48.6c0-0.1,0-0.3,0.1-0.6c0,0.1,0.1,0.1,0.2,0.2c0,0,0.1,0.1,0.2,0.1c0,0.1,0,0.3,0,0.5
		c0,0,0,0,0,0.1c-0.1,0-0.1,0-0.2,0C143.1,48.7,143,48.7,142.9,48.6 M142.4,44.3c-0.1-0.1-0.2-0.5-0.4-1c-0.1-0.6-0.1-1.1-0.2-1.6
		c-0.1-0.8-0.2-1.5-0.3-2.3c-0.1-0.8-0.2-1.5-0.3-2.2c-0.1-0.7-0.2-1.5-0.4-2.2c-0.1-0.7-0.3-1.5-0.4-2.2l-0.1-0.4l-0.1-0.4
		c0-0.1-0.1-0.6-0.3-1c-0.2-0.4-0.3-0.5-0.4-0.5s-0.1,0.2,0,0.6c0,0.2,0.1,0.3,0.1,0.5c-0.3-0.3-0.6-0.7-0.9-1
		c-0.2-0.3-0.5-0.5-0.7-0.8c0.5-0.2,0.9-0.5,1.3-0.7c3.5,3.3,5.1,9,6.3,13.1c0.1,0.4,0.2,0.7,0.3,1c0,0,0,0.1,0,0.2
		C145.6,43.8,143.2,44.3,142.4,44.3C142.5,44.3,142.4,44.3,142.4,44.3 M141,52.1c-0.4,0.3-3.2,0.5-5.1,0.4c-0.8-0.1-1-0.2-1.1-0.2
		c0-0.3-0.1-4-0.2-4.8c0.2-0.2,0.4-0.5,0.5-1c0.1-0.4,0.1-0.9,0.1-1.3c0.1,0,0.2,0,0.3,0c0.8,0,1.5,0,2.3-0.1c0.5,0,0.9,0,1.4-0.1
		c0.6,0.6,1.4,0.8,1.9,0.9C141.1,48.5,141.1,51.6,141,52.1 M140.6,52.7c0,0.4,0,0.8,0.1,1.3c-0.1,0-0.2,0-0.3,0
		c-0.9,0.1-1.8,0.3-2.4,0.4c-0.6,0.1-1,0.2-1.1,0.4c0,0.1,0.4,0.4,1,0.5c0.7,0.2,1.6,0.2,2.6,0.1c0.1,0,0.1,0,0.2,0
		c0,0.3,0,0.5,0,0.8c-1,0.1-2.4,0.7-3.3,1.5c-0.6-0.2-1.3-0.3-1.6-0.3c-0.3,0-0.5,0-0.8,0.1c0-0.9-0.1-2.8-0.1-4.4
		c0-0.2,0-0.3,0-0.5c0.2,0.1,0.5,0.1,0.8,0.1c0.4,0,0.9,0.1,1.4,0.1c0.6,0,1.3,0,2-0.1C139.8,52.8,140.3,52.7,140.6,52.7L140.6,52.7
		 M141.5,56.9c0.1,0.1,0.2,0.2,0.2,0.4c-0.8,0.2-2,0.7-2.3,1.2s-0.2,0.9-0.1,1.1c0.2,0.3,0.5,0.5,1,0.5c0.3,0,0.5-0.1,0.7-0.2
		c0.5-0.4,1.9-1,2.4-1c0.9,0.6,1.1,1,1.2,1.4c-0.2-0.1-0.3-0.1-0.5-0.1c-0.8,0-1.5,0.6-2,1.5c-0.2,0-0.3,0-0.5,0
		c-1.2,0-2.5-0.2-3.4-0.5c-0.2-0.1-0.5-0.2-0.8-0.3c-0.7-0.2-1.8-0.5-2.2-0.8c-0.1-0.8,0-1.7,0-2.1c0.1,0,0.3-0.1,0.8-0.1
		c0.6,0,1.1,0.1,1.6,0.3c0.1,0,0.2,0,0.2,0c0.8-0.9,2.4-1.5,3.3-1.5c0.2,0,0.4,0,0.4,0.1L141.5,56.9z M141.3,62.6
		c-1.1,0-2.2-0.2-3.1-0.5c-0.2-0.1-0.5-0.2-0.8-0.3c-0.8-0.2-2.1-0.6-2.1-1c0-0.1,0-0.2,0-0.3c0.5,0.3,1.4,0.5,2,0.7
		c0.3,0.1,0.6,0.2,0.8,0.3c1,0.3,2.3,0.6,3.5,0.6c0.2,0,0.4,0,0.6,0c0.1,0,0.1,0,0.2-0.1c0.5-1,1.2-1.4,1.7-1.4
		c0.2,0,0.4,0.1,0.5,0.2v0.1c0,0.3,0,0.6,0,0.8C144.5,62.1,143.2,62.6,141.3,62.6 M143.1,58.4c-0.7,0.2-1.9,0.7-2.4,1.1
		c-0.1,0.1-0.3,0.1-0.4,0.1c-0.3,0-0.5-0.1-0.6-0.3s0-0.5,0.1-0.6c0.3-0.5,1.7-1.1,2.4-1.1c0.1,0,0.1,0,0.2,0
		C142.6,57.7,142.9,58.1,143.1,58.4 M131.4,61.8c-0.3,0.1-0.6,0.2-0.9,0.3c-1,0.4-2.1,0.5-3.1,0.5c-1.9,0-3.3-0.6-3.4-1
		c-0.1-0.2-0.1-0.6,0-0.9c0.1-0.2,0.2-0.5,0.6-0.5c0.3,0,0.9,0.2,1.8,1.6c0,0.1,0.1,0.1,0.2,0.1c0.2,0,0.4,0,0.6,0
		c1.2,0,2.6-0.2,3.5-0.6c0.2-0.1,0.5-0.2,0.8-0.3c0.7-0.2,1.5-0.4,2-0.7c0,0.1,0,0.2,0,0.3C133.4,61.3,132.2,61.6,131.4,61.8
		 M126.4,57.6c0.7,0,2.1,0.6,2.4,1.1c0.1,0.2,0.2,0.4,0.1,0.6c-0.1,0.2-0.3,0.3-0.6,0.3c-0.2,0-0.3,0-0.4-0.1
		c-0.4-0.3-1.7-0.9-2.4-1.1c0.2-0.3,0.6-0.7,0.7-0.8C126.3,57.6,126.3,57.6,126.4,57.6 M125.3,58.8c0.5,0,1.9,0.6,2.4,1
		c0.2,0.1,0.4,0.2,0.7,0.2c0.4,0,0.8-0.2,1-0.5c0.1-0.2,0.2-0.6-0.1-1.1c-0.3-0.6-1.5-1.1-2.3-1.2c0.1-0.1,0.2-0.2,0.2-0.4l0.1-0.2
		c0.1-0.1,0.2-0.1,0.4-0.1c0.8,0,2.3,0.7,3.1,1.5c0.1,0.1,0.2,0.1,0.2,0c0.4-0.2,1-0.3,1.7-0.3c0.5,0,0.8,0.1,0.9,0.1
		c0.1,0.4,0.1,1.2,0,2.1c-0.4,0.3-1.5,0.6-2.2,0.8c-0.3,0.1-0.6,0.2-0.8,0.3c-0.9,0.3-2.2,0.5-3.4,0.5c-0.2,0-0.3,0-0.4,0
		c-0.7-1.1-1.5-1.8-2.1-1.8c-0.2,0-0.3,0-0.4,0.1C124.3,59.6,124.5,59.3,125.3,58.8 M133.5,57.5c-0.2-0.1-0.5-0.1-0.9-0.1
		c-0.6,0-1.2,0.1-1.7,0.3c-0.8-0.8-2.1-1.4-3.1-1.5c0-0.3,0-0.5,0-0.8c0.1,0,0.1,0,0.2,0c1,0.1,1.9,0,2.6-0.1c0.7-0.2,1-0.4,1-0.5
		s-0.4-0.2-1.1-0.4c-0.6-0.1-1.5-0.3-2.4-0.4c-0.1,0-0.2,0-0.3,0c0-0.4,0-0.9,0.1-1.3v-0.1c0.3,0.1,0.7,0.1,1.3,0.2
		c0.7,0.1,1.3,0.1,2,0.1c0.5,0,1,0,1.4-0.1c0.4,0,0.6-0.1,0.9-0.1c0,0.2,0,0.3,0,0.5C133.6,54.7,133.6,56.6,133.5,57.5 M126,47.4
		c-0.1-0.1-0.2-0.2-0.3-0.3V47C125.9,47.2,126,47.3,126,47.4 M125.4,48.7c0,0.1-0.2,0.1-0.3,0.1c-0.1,0-0.1,0-0.2,0l0,0
		c0,0,0,0,0-0.1c0.1-0.2,0.1-0.3,0-0.5c0.1,0,0.1,0,0.2-0.1c0.1,0,0.1-0.1,0.2-0.2C125.4,48.4,125.5,48.6,125.4,48.7 M125.6,47.7
		v-0.1c0.2,0.3,0.2,0.3,0.1,0.5C125.7,47.9,125.6,47.8,125.6,47.7 M125.5,46.2c-0.1,0.4-0.1,0.7-0.2,1.1c-0.1,0.2-0.1,0.3-0.2,0.5
		c-0.1,0.1-0.2,0.2-0.3,0.2c-0.1,0-0.1,0-0.2,0l-0.1-0.1c-0.1-0.1-0.1-0.3-0.1-0.5c0,0,0-0.2,0-0.4c0-0.1,0-0.3,0-0.4
		c0-0.1,0.1-0.6,0.2-1c0.1-0.5,0.1-0.6,0-0.6s-0.2,0.1-0.3,0.5c-0.2,0.4-0.2,1-0.2,1.1s0,0.2,0,0.3c0-0.1-0.1-0.1-0.1-0.2
		c0-0.1,0-0.1,0-0.2c0-0.1,0.1-0.1,0.1-0.2c0-0.1,0-0.1,0-0.2c0,0-0.1,0-0.2,0c0,0-0.1,0.1-0.2,0.1c-0.1,0.1-0.1,0.2-0.1,0.4
		s0.1,0.3,0.1,0.4c0.1,0.1,0.1,0.2,0.2,0.3l0.1,0.1c0,0.2,0.1,0.4,0.2,0.6c0.1,0.1,0.1,0.2,0.3,0.3c0.1,0,0.1,0.1,0.2,0.1
		c0,0.1,0,0.2,0,0.3s-0.1,0.2-0.3,0.2c-0.1,0-0.3,0-0.4-0.1c-0.2-0.1-0.3-0.2-0.5-0.3c-0.6-0.4-0.9-1.1-1-1.8s-0.1-1.5,0.2-2.2
		c0,0,0-0.2,0.1-0.4c0-0.1,0.1-0.2,0.2-0.4c0.8,0.5,2.1,0.8,2.9,0.9c0,0.2,0,0.3,0,0.3C125.6,45.4,125.6,45.8,125.5,46.2
		 M122.5,42.8c0.1-0.3,0.3-0.8,0.5-1.5c0.9-3.2,2.8-9.7,6.3-12.5c0.4,0.3,0.8,0.6,1.3,0.8c-0.3,0.2-1,0.9-2,2.2
		c0-0.2,0.1-0.4,0.1-0.6c0.1-0.4,0.1-0.6,0-0.6s-0.2,0.1-0.3,0.5c-0.1,0.4-0.2,1-0.3,1l-0.1,0.4l-0.1,0.4c-0.1,0.7-0.3,1.5-0.4,2.2
		s-0.2,1.5-0.3,2.2c-0.1,0.7-0.2,1.5-0.3,2.2c-0.1,0.8-0.2,1.5-0.3,2.3c0,0.4-0.1,0.8-0.1,1.1c0,0.2,0,0.4,0,0.7
		c-0.1,0.3-0.2,0.5-0.3,0.6c-0.6,0-3.2-0.6-3.6-1.3C122.5,42.9,122.5,42.9,122.5,42.8 M124.6,34.6c0.1,0.1,0.1,0.1,0.2,0.2
		c-0.3,0.6-0.5,1.2-0.7,1.9c-0.2-0.4-0.4-0.7-0.6-0.9C123.6,35.4,124.2,34.8,124.6,34.6 M124.8,22.7l0.2-0.1l0.2-0.1l0.4-0.2
		c0.1,0,0.1-0.1,0.2-0.1c0,0,0,0,0-0.1c0,0,0,0-0.1,0c0,0-0.1,0-0.2,0c-0.2,0-0.4,0.1-0.4,0.1l-0.2,0.1l-0.2,0.1h-0.1
		c-0.1-0.3-0.3-0.6-0.4-1c0.1,0,0.3,0,0.4,0h0.2h0.2l0.4,0.1c0.2,0,0.2,0,0.3,0c0,0,0-0.1-0.2-0.1c-0.2-0.1-0.4-0.1-0.4-0.1
		c-0.1,0-0.1,0-0.2,0h-0.2c-0.2,0-0.3,0-0.5,0c-0.1-0.2-0.2-0.5-0.2-0.8c0.2-0.1,0.4-0.3,0.5-0.4c0.5-0.4,0.7-0.7,0.7-0.9
		c-0.1-0.2-0.5-0.3-1.1-0.2c-0.1,0-0.2,0-0.4,0c0-0.2,0-0.4-0.1-0.7c0-0.8,0-1.6,0.1-2.4c0.9-0.2,1.4-0.5,1.4-0.8
		c0-0.2-0.4-0.4-1-0.6c-0.1,0-0.1,0-0.2,0c0.4-1.8,1.2-3.3,2.4-4.6c1.7-1.8,4.1-2.9,6.7-3.2c0,0.2,0,0.3,0,0.5
		c-0.7,0.1-1.3,0.2-1.8,0.4c-0.8,0.3-1.2,0.6-1.1,0.7s0.5,0.2,1.3,0.3c0.5,0,1.2,0.1,1.9,0.1c0,0.2,0.1,0.3,0.1,0.5
		c-0.4,0.1-0.7,0.2-0.9,0.3c-0.5,0.2-0.8,0.4-0.8,0.5c0,0.2,0.9,0.6,2,0.7c0.2,0.7,0.5,1.2,0.6,1.2c0.2,0,0.5-0.4,0.7-1.2
		c0.4,0,0.8-0.1,1.1-0.2c0.5-0.1,0.8-0.3,0.8-0.4s-0.3-0.4-0.7-0.6c-0.2-0.1-0.5-0.2-0.8-0.3c0-0.2,0.1-0.3,0.1-0.5
		c0.7,0,1.2-0.1,1.7-0.1c0.7-0.1,1.2-0.1,1.3-0.2c0-0.1-0.4-0.5-1.1-0.8c-0.5-0.2-1-0.3-1.7-0.4c0-0.2,0-0.3,0-0.5
		c2.6,0.3,4.9,1.4,6.6,3.2c1.2,1.3,2,2.8,2.4,4.6h-0.1c-0.6,0.2-1,0.4-1,0.6s0.5,0.5,1.3,0.7c0.1,0.8,0.1,1.6,0.1,2.4
		c0,0.2,0,0.4-0.1,0.6c-0.1,0-0.2,0-0.3,0c-0.6,0-1,0.1-1.1,0.2c-0.1,0.2,0.2,0.5,0.7,0.9c0.1,0.1,0.3,0.2,0.4,0.3
		c-0.1,0.3-0.2,0.6-0.2,0.9c-0.2,0-0.3,0-0.5,0c0,0-0.1,0-0.2,0h-0.2c0,0-0.3,0-0.4,0.1c-0.2,0.1-0.2,0.1-0.2,0.1s0.1,0.1,0.3,0
		l0.4-0.1h0.2h0.2c0.1,0,0.3,0,0.4,0c-0.1,0.3-0.3,0.7-0.4,1h-0.1l-0.2-0.1l-0.2-0.1c0,0-0.2-0.1-0.4-0.1c-0.1,0-0.2,0-0.2,0h-0.1
		c0,0,0,0,0,0.1c0,0,0.1,0,0.2,0.1l0.4,0.1l0.2,0.1l0.2,0.1h0.1c-0.3,0.7-0.8,1.2-1.2,1.8c-2.1,2.4-5.4,3.4-8.3,3.4v0.2l0,0v-0.2
		c-2.9,0-6.2-1-8.3-3.4C125.5,24,125.1,23.4,124.8,22.7L124.8,22.7 M123.8,7.4c0.8-0.7,1.8-1.1,2.7-1.1c0.7,0,1.7,0.2,2.4,1.4
		c-0.5,0.3-1,0.6-1.5,0.9c-0.4-0.5-0.8-0.5-1.1-0.5c-0.4,0-0.9,0.2-1.3,0.5c-0.5,0.4-0.7,1.2-0.5,1.9c0.1,0.3,0.3,0.5,0.5,0.7
		c-0.3,0.5-0.6,1-0.8,1.5c-0.6-0.3-1.1-0.8-1.3-1.5C122.4,9.9,122.8,8.3,123.8,7.4 M124.9,10.3c-0.2-0.5,0-1.1,0.4-1.4
		c0.3-0.3,0.7-0.4,1.1-0.4c0.3,0,0.6,0.1,0.8,0.4c-0.4,0.3-0.7,0.6-1,1c-0.3,0.3-0.6,0.6-0.8,1C125,10.7,124.9,10.5,124.9,10.3
		 M144.8,7.5c1,0.9,1.4,2.5,1,3.8c-0.2,0.7-0.7,1.2-1.3,1.5c-0.2-0.5-0.5-1-0.8-1.5c0.2-0.2,0.4-0.4,0.5-0.7c0.2-0.6,0-1.5-0.5-1.9
		c-0.4-0.3-0.9-0.5-1.3-0.5c-0.3,0-0.7,0.1-1.1,0.5c-0.5-0.3-0.9-0.6-1.5-0.9c0.7-1.1,1.7-1.4,2.4-1.4C143,6.4,144,6.8,144.8,7.5
		 M143.4,10.8c-0.3-0.4-0.5-0.7-0.8-1s-0.7-0.6-1-0.9c0.2-0.2,0.4-0.4,0.8-0.4c0.3,0,0.7,0.2,1.1,0.4c0.4,0.3,0.5,0.9,0.4,1.4
		C143.6,10.5,143.5,10.7,143.4,10.8 M129.6,28.6c0.1-0.1,0.3-0.2,0.4-0.3c0.9,0.7,2.4,1.1,4.2,1.1c1.8,0,3.5-0.4,4.5-1.1
		c0.1,0.1,0.3,0.2,0.4,0.4c-1,0.8-2.8,1.3-4.8,1.3C132.4,29.9,130.6,29.4,129.6,28.6 M138.2,27.9c0,0,0.1,0.1,0.2,0.1
		c-0.9,0.6-2.5,1-4.1,1s-2.9-0.3-3.8-0.9h0.1c0.1-0.1,0.2-0.1,0.3-0.2c1.1,0.3,2.3,0.4,3.5,0.4l0,0
		C135.7,28.3,136.9,28.1,138.2,27.9C138.1,27.8,138.1,27.8,138.2,27.9 M141.1,45.4c-0.3,0-0.8-0.2-1.3-0.5c0.1,0,0.2,0,0.3,0
		c0.3,0,0.6-0.1,1-0.1C141,45,141.1,45.2,141.1,45.4 M134.2,47.1c-0.1-0.3-0.2-1.2-0.2-2.1c0.3,0,0.5,0,0.8,0c0,0.4,0,0.9-0.1,1.3
		C134.6,46.8,134.4,47,134.2,47.1 M127.6,45.4c0-0.2,0-0.4,0-0.5c0.4,0,0.7,0.1,1.1,0.1h0.1C128.4,45.2,127.9,45.3,127.6,45.4
		 M127.6,45.8c0.5,0,1.3-0.3,1.9-0.8c0.5,0,1,0,1.5,0.1c0.8,0,1.5,0,2.3,0c0.1,0,0.2,0,0.3,0c0,0.2,0,0.5,0,0.7
		c0.1,1.2,0.2,1.6,0.4,1.7c-0.1,1.1-0.2,4.4-0.2,4.7c0,0-0.2,0.2-1.1,0.2c-1.9,0.2-4.7-0.1-5.1-0.4
		C127.6,51.6,127.6,48.5,127.6,45.8 M141.2,44.3c-0.4,0-0.7,0.1-1.1,0.1c-0.8,0.1-1.5,0.1-2.3,0.1s-1.5,0.1-2.3,0.1s-1.5,0-2.3,0
		s-1.5,0-2.3,0s-1.5-0.1-2.3-0.1c-0.4,0-0.7,0-1.1-0.1c-0.2,0-0.4,0-0.5-0.1h-0.1l0,0v-0.1c0-0.4,0-0.7,0-1.1c0-0.4,0.1-0.7,0.1-1.1
		c0.1-0.7,0.2-1.5,0.3-2.2c0.1-0.7,0.2-1.5,0.3-2.2c0.1-0.7,0.2-1.5,0.3-2.2c0.1-0.7,0.2-1.5,0.4-2.2l0.1-0.4l0.1-0.4l0,0l0,0h0.1
		c1-1.3,1.8-2.1,2.1-2.4c0,0,0,0,0-0.1c1,0.4,2.2,0.6,3.6,0.6c1.3,0,2.5-0.2,3.5-0.6l0,0c0.2,0.2,0.5,0.5,0.8,0.8
		c0.5,0.5,1,1.1,1.2,1.4l0,0c0,0.1,0.1,0.3,0.1,0.4l0.1,0.4c0.2,0.7,0.3,1.5,0.4,2.2s0.2,1.5,0.3,2.2c0.1,0.7,0.2,1.5,0.3,2.2
		c0.1,0.7,0.2,1.5,0.3,2.2c0.1,0.7,0.2,1.5,0.2,2.2c0,0.1,0,0.2,0,0.3l0,0C141.5,44.3,141.3,44.3,141.2,44.3 M141.7,44.3L141.7,44.3
		L141.7,44.3z M142.8,47.4v0.1c-0.1,0.1-0.1,0.2-0.2,0.4C142.6,47.8,142.6,47.7,142.8,47.4 M142.7,47c-0.1,0.1-0.2,0.2-0.3,0.3
		C142.4,47.2,142.5,47.1,142.7,47C142.7,46.9,142.7,46.9,142.7,47"/>
	<path d="M135.9,32.7c0,1.3,0.2,2.2,0.6,2.7c0.3,0.3,0.7,0.5,1.2,0.5c0.4,0,1-0.1,1.4-0.5c0.4-0.5,0.5-1.3,0.4-2.6
		c0-0.1-0.1-0.2-0.2-0.2h-3.1C136,32.5,135.9,32.6,135.9,32.7 M137.8,35.4c-0.4,0-0.7-0.1-0.9-0.3c-0.4-0.4-0.5-1.1-0.5-2.1h2.8
		c0.1,1,0,1.7-0.3,2.1C138.6,35.3,138.3,35.4,137.8,35.4"/>
	<path d="M129.3,11.2c-0.2,0-0.3,0-0.3,0c-0.6,0-1.1,0.2-1.5,0.5c0,0-0.1,0.1-0.2,0.2s-0.1,0.1-0.2,0.2c0,0-0.1,0.1-0.2,0.2
		s-0.2,0.3-0.2,0.4c-0.1,0.2-0.1,0.3-0.1,0.3c0,0.1,0,0.1,0.1,0.1h0.1c0.1,0,0.1-0.1,0.2-0.3c0.1-0.2,0.3-0.5,0.4-0.6
		s0.1-0.1,0.2-0.2s0.2-0.2,0.2-0.2c0.4-0.3,0.8-0.5,1.3-0.4c0,0,0.1,0,0.2,0s0.2,0,0.2,0s0.3,0.1,0.5,0.3l0.1,0.1l0.1,0.1
		c0.1,0,0.1,0,0.1,0v-0.1v-0.1c0-0.1-0.1-0.1-0.1-0.2c-0.1-0.1-0.3-0.2-0.4-0.3c-0.1-0.1-0.2-0.1-0.3-0.1
		C129.5,11.2,129.4,11.2,129.3,11.2"/>
	<path d="M138.2,12.1h0.1c0,0,0.1,0,0.1-0.1l0.1-0.1c0.1-0.1,0.2-0.2,0.3-0.2c0.1-0.1,0.2-0.1,0.2-0.1c0.1,0,0.2,0,0.2,0
		c0.1,0,0.2,0,0.2,0c0.5,0,0.9,0.2,1.3,0.5c0,0,0.1,0.1,0.2,0.2s0.1,0.1,0.2,0.2c0,0,0.2,0.3,0.4,0.6c0.1,0.1,0.1,0.2,0.2,0.3
		c0.1,0,0.1,0.1,0.1,0c0,0,0.1,0,0.1-0.1s0-0.2,0-0.3c0-0.1-0.1-0.3-0.2-0.4s-0.1-0.2-0.2-0.2c-0.1-0.1-0.1-0.2-0.2-0.2
		c-0.1-0.1-0.2-0.2-0.2-0.2c-0.4-0.4-1-0.6-1.5-0.6c0,0-0.1,0-0.3,0c-0.1,0-0.2,0-0.3,0.1c0,0-0.1,0-0.3,0.1
		c-0.1,0.1-0.3,0.2-0.4,0.3C138.2,12,138.2,12,138.2,12.1c0,0.1,0,0.1,0,0.1C138.1,12,138.2,12.1,138.2,12.1"/>
	<path d="M133.1,19.4c0,0.2,0.1,0.4,0.3,0.6c0.2,0.2,0.4,0.3,0.7,0.4c0,0.1,0,0.3,0,0.5c0,1.1,0,3,0,3.6c-0.7,0-1.4-0.1-2.1-0.3
		c0,0-0.2,0-0.4-0.1c-0.1,0-0.3-0.1-0.4-0.2c-0.1,0-0.6-0.3-0.9-0.6c-0.1-0.1-0.2-0.1-0.2-0.2C130,23,130,23,129.9,23
		c-0.1-0.1-0.1-0.1-0.2,0c0,0,0,0.1,0,0.2c0,0,0,0.1,0.1,0.2c0,0.1,0.1,0.2,0.2,0.3c0.2,0.2,0.4,0.3,0.6,0.5
		c0.2,0.1,0.4,0.2,0.4,0.2c0.2,0.1,0.3,0.1,0.4,0.2c0.3,0.1,0.4,0.1,0.4,0.1c0.8,0.2,1.6,0.3,2.5,0.4c0.8,0,1.7-0.1,2.5-0.3
		c0,0,0.2,0,0.4-0.1c0.1,0,0.3-0.1,0.4-0.2c0,0,0.2-0.1,0.4-0.2c0.2-0.1,0.4-0.3,0.6-0.4c0.1-0.1,0.2-0.2,0.2-0.2
		c0.1-0.1,0.1-0.1,0.1-0.2s0-0.1,0-0.2c0,0-0.1,0-0.2,0c0,0-0.1,0.1-0.2,0.1l-0.2,0.2c-0.3,0.3-0.9,0.5-0.9,0.5
		c-0.1,0.1-0.3,0.1-0.4,0.2c-0.2,0.1-0.4,0.1-0.4,0.1c-0.7,0.2-1.5,0.3-2.2,0.3c0-0.6,0-2.5,0-3.6c0-0.2,0-0.3,0-0.5
		c0.4-0.1,0.6-0.3,0.7-0.4c0.2-0.2,0.2-0.4,0.2-0.6c0-0.1,0-0.1-0.1-0.2s-0.4-0.2-0.9-0.2c-0.4,0-0.7,0-0.9,0.1
		C133.2,19.2,133.2,19.4,133.1,19.4 M134.4,19.4c0.3,0,0.5,0,0.6,0.1c0,0.1,0,0.1-0.1,0.2s-0.3,0.3-0.6,0.3c-0.3,0-0.5-0.2-0.6-0.3
		c-0.1-0.1-0.1-0.2-0.1-0.2C133.7,19.5,134,19.4,134.4,19.4"/>
	<path d="M128.9,14.4c-1,0.1-1.5,1.8-1.4,3.3c0.1,1.4,0.7,2.3,1.5,2.3c0,0,0,0,0.1,0c1.1-0.1,1.6-1.5,1.5-2.9
		C130.6,15.8,130,14.3,128.9,14.4 M128.7,17.5c-0.7,0-0.6-1.9,0-2S129.4,17.4,128.7,17.5"/>
	<path d="M139.4,20C139.5,20,139.5,20,139.4,20c0.9,0,1.5-0.9,1.6-2.3c0.1-1.5-0.4-3.2-1.4-3.3c-1.1-0.1-1.6,1.4-1.7,2.7
		C137.9,18.5,138.3,20,139.4,20 M139.1,17.5c-0.7,0-0.6-2,0-2C139.8,15.6,139.8,17.5,139.1,17.5"/>
</g>
</svg>
