<?xml version="1.0" encoding="utf-8"?>
<!-- Generator: Adobe Illustrator 24.1.0, SVG Export Plug-In . SVG Version: 6.00 Build 0)  -->
<svg version="1.1" id="m-lock.svg" xmlns="http://www.w3.org/2000/svg" xmlns:xlink="http://www.w3.org/1999/xlink" x="0px" y="0px"
	 viewBox="0 0 23 25" style="enable-background:new 0 0 23 25;" xml:space="preserve">
<style type="text/css">
	.st0{fill:#DBBA00;}
	.st1{fill:#FFD200;}
	.st2{fill-rule:evenodd;clip-rule:evenodd;fill:#8A7200;}
	.st3{fill-rule:evenodd;clip-rule:evenodd;fill:#C0C0C0;}
</style>
<path id="body" class="st0" d="M2.3,8.6h18.4c1.3,0,2.3,1,2.3,2.3v11.8c0,1.3-1,2.3-2.3,2.3H2.3C1,25,0,24,0,22.7V10.9
	C0,9.6,1,8.6,2.3,8.6z"/>
<path class="st1" d="M2.5,8.6h9V25H2.4C1.1,25,0,23.9,0,22.6V11.1C0,9.7,1.1,8.6,2.5,8.6z"/>
<path id="keychain" class="st2" d="M11.5,12.9c1.5,0,2.8,1.2,2.8,2.7c0,1.5-1.2,2.8-2.7,2.8c-1.5,0-2.8-1.2-2.8-2.7c0,0,0,0,0-0.1
	C8.8,14.1,10,12.9,11.5,12.9z M10.4,17.2h2.3v3.5h-2.3V17.2L10.4,17.2z"/>
<path id="lock" class="st3" d="M11.5,3.1c-3,0-5.4,2.5-5.4,5.5c0,0,0,0,0,0H3.1C3,3.9,6.7,0.1,11.3,0c4.7-0.1,8.5,3.6,8.6,8.2
	c0,0.1,0,0.2,0,0.4h-3.1C16.9,5.6,14.5,3.2,11.5,3.1C11.5,3.1,11.5,3.1,11.5,3.1z"/>
</svg>
