<?xml version="1.0" encoding="utf-8"?>
<!-- Generator: Adobe Illustrator 24.0.1, SVG Export Plug-In . SVG Version: 6.00 Build 0)  -->
<svg version="1.1" id="m-lock.svg" xmlns="http://www.w3.org/2000/svg" xmlns:xlink="http://www.w3.org/1999/xlink" x="0px" y="0px"
	 viewBox="0 0 23 25" style="enable-background:new 0 0 23 25;" xml:space="preserve">
<style type="text/css">
	.st0{fill:#FDBF00;}
	.st1{fill:#FF9F00;}
	.st2{fill:#FFDE46;}
	.st3{fill:#FFD400;}
</style>
<g>
	<path class="st0" d="M22.7,6.3v12.3c0,1.3-0.9,2.3-2,2.3H2.3c-1.1,0-2-1-2-2.3V6.3c0-0.6,0.2-1.2,0.6-1.7l0,0l10.2,6.8
		c0.1,0.1,0.3,0.1,0.4,0.1s0.3,0,0.4-0.1l10.2-6.8l0,0C22.5,5.1,22.7,5.7,22.7,6.3z"/>
	<path class="st1" d="M22.7,6.3v12.3c0,1.3-0.9,2.3-2,2.3h-9.2v-9.2c0.1,0,0.3,0,0.4-0.1l10.2-6.8l0,0C22.5,5.1,22.7,5.7,22.7,6.3z"
		/>
	<path class="st2" d="M22.1,4.7L22.1,4.7l-10.2,10c-0.1,0.1-0.3,0.1-0.4,0.1s-0.3-0.1-0.4-0.1L0.9,4.7l0,0C1.2,4.3,1.7,4,2.3,4h18.5
		C21.3,4,21.8,4.2,22.1,4.7z"/>
	<path class="st3" d="M22.1,4.7L22.1,4.7l-10.2,10c-0.1,0.1-0.3,0.1-0.4,0.1V4h9.2C21.3,4,21.8,4.2,22.1,4.7z"/>
</g>
</svg>
